<?xml version="1.0" encoding="utf-8"?>
<!-- Generator: Adobe Illustrator 25.4.1, SVG Export Plug-In . SVG Version: 6.00 Build 0)  -->
<svg version="1.1" id="Layer_1" xmlns="http://www.w3.org/2000/svg" xmlns:xlink="http://www.w3.org/1999/xlink" x="0px" y="0px"
	 width="45.8px" height="45.5px" viewBox="0 0 45.8 45.5" style="enable-background:new 0 0 45.8 45.5;" xml:space="preserve">
<style type="text/css">
	.st0{fill:#DCDDDE;}
</style>
<rect x="2.7" y="36.9" class="st0" width="5.7" height="5.7"/>
<rect x="37" y="36.9" class="st0" width="5.7" height="5.7"/>
<rect x="25.7" y="36.9" class="st0" width="5.7" height="5.7"/>
<rect x="14" y="36.9" class="st0" width="5.7" height="5.7"/>
<rect x="2.7" y="25.6" class="st0" width="5.7" height="5.7"/>
<rect x="37" y="25.6" class="st0" width="5.7" height="5.7"/>
<rect x="25.7" y="25.6" class="st0" width="5.7" height="5.7"/>
<rect x="14.3" y="25.6" class="st0" width="5.7" height="5.7"/>
<rect x="2.7" y="14.2" class="st0" width="5.7" height="5.7"/>
<rect x="37" y="14.2" class="st0" width="5.7" height="5.7"/>
<rect x="25.7" y="14.2" class="st0" width="5.7" height="5.7"/>
<rect x="14.3" y="14.2" class="st0" width="5.7" height="5.7"/>
<rect x="2.7" y="2.9" class="st0" width="5.7" height="5.7"/>
<rect x="37" y="2.9" class="st0" width="5.7" height="5.7"/>
<rect x="25.4" y="2.9" class="st0" width="5.7" height="5.7"/>
<rect x="14" y="2.9" class="st0" width="5.7" height="5.7"/>
</svg>
