<?xml version="1.0" encoding="utf-8"?>
<!-- Generator: Adobe Illustrator 25.4.1, SVG Export Plug-In . SVG Version: 6.00 Build 0)  -->
<svg version="1.1" id="Layer_1" xmlns="http://www.w3.org/2000/svg" xmlns:xlink="http://www.w3.org/1999/xlink" x="0px" y="0px"
	 width="280px" height="59px" viewBox="0 0 280 59" style="enable-background:new 0 0 280 59;" xml:space="preserve">
<style type="text/css">
	.st0{fill:#FFFFFF;}
	.st1{opacity:0.9;fill:#D1D3D4;enable-background:new    ;}
	.st2{opacity:0.55;fill:#FFFFFF;enable-background:new    ;}
	.st3{opacity:0.74;fill:#E6E7E8;enable-background:new    ;}
</style>
<path class="st0" d="M46.5,8.9h2.1v14.3h8.5v1.8H46.5L46.5,8.9L46.5,8.9z"/>
<path class="st0" d="M69.1,25c-0.3,0.2-0.8,0.3-1.4,0.3c-1,0-1.6-0.5-1.6-1.8c-1.1,1.2-2.5,1.8-4.1,1.8c-2.1,0-3.9-0.9-3.9-3.3
	c0-2.6,2-3.2,4-3.6c2.1-0.4,3.9-0.3,3.9-1.7c0-1.7-1.4-1.9-2.6-1.9c-1.6,0-2.8,0.5-2.9,2.2h-1.9c0.1-2.9,2.3-3.9,4.9-3.9
	c2.1,0,4.4,0.5,4.4,3.2v6c0,0.9,0,1.3,0.6,1.3c0.2,0,0.3,0,0.6-0.1L69.1,25L69.1,25z M66,19c-0.7,0.5-2.2,0.6-3.5,0.8
	c-1.3,0.2-2.3,0.7-2.3,2.1c0,1.3,1.1,1.7,2.3,1.7c2.5,0,3.6-1.6,3.6-2.6L66,19L66,19z"/>
<path class="st0" d="M70.6,8.9h1.9v6h0c0.6-1.3,2.1-1.9,3.7-1.9c3.6,0,5.4,2.8,5.4,6.1s-1.8,6.1-5.3,6.1c-1.2,0-2.9-0.5-3.8-1.8h0
	v1.6h-1.9V8.9z M76,14.8c-2.6,0-3.6,2.2-3.6,4.4c0,2.3,1,4.4,3.7,4.4c2.6,0,3.5-2.2,3.5-4.5C79.7,16.9,78.5,14.8,76,14.8z"/>
<path class="st0" d="M89,13.1c3.7,0,5.7,2.7,5.7,6.1c0,3.4-2,6.1-5.7,6.1c-3.7,0-5.7-2.7-5.7-6.1C83.3,15.8,85.3,13.1,89,13.1z
	 M89,23.6c2,0,3.6-1.6,3.6-4.4c0-2.8-1.6-4.4-3.6-4.4c-2,0-3.6,1.6-3.6,4.4C85.3,22.1,87,23.6,89,23.6z"/>
<path class="st0" d="M96.5,13.4h1.8v2.5h0c0.9-1.9,2.2-2.8,4.3-2.7v2c-3.1,0-4.2,1.8-4.2,4.7v5.2h-1.9V13.4L96.5,13.4z"/>
<path class="st0" d="M114.2,25c-0.3,0.2-0.8,0.3-1.4,0.3c-1,0-1.6-0.5-1.6-1.8c-1.1,1.2-2.5,1.8-4.1,1.8c-2.1,0-3.9-0.9-3.9-3.3
	c0-2.6,2-3.2,4-3.6c2.1-0.4,3.9-0.3,3.9-1.7c0-1.7-1.4-1.9-2.6-1.9c-1.6,0-2.8,0.5-2.9,2.2h-1.9c0.1-2.9,2.3-3.9,4.9-3.9
	c2.1,0,4.4,0.5,4.4,3.2v6c0,0.9,0,1.3,0.6,1.3c0.2,0,0.3,0,0.6-0.1L114.2,25L114.2,25z M111,19c-0.7,0.5-2.2,0.6-3.5,0.8
	c-1.3,0.2-2.3,0.7-2.3,2.1c0,1.3,1.1,1.7,2.3,1.7c2.5,0,3.6-1.6,3.6-2.6L111,19L111,19z"/>
<path class="st0" d="M118.6,13.4h2.3v1.7h-2.3v7.2c0,0.9,0.2,1,1.4,1h0.9v1.7h-1.5c-2,0-2.8-0.4-2.8-2.6v-7.4h-2v-1.7h2V9.9h1.9
	L118.6,13.4L118.6,13.4z"/>
<path class="st0" d="M127.5,13.1c3.7,0,5.7,2.7,5.7,6.1c0,3.4-2,6.1-5.7,6.1c-3.7,0-5.7-2.7-5.7-6.1
	C121.8,15.8,123.8,13.1,127.5,13.1z M127.5,23.6c2,0,3.6-1.6,3.6-4.4c0-2.8-1.6-4.4-3.6-4.4s-3.6,1.6-3.6,4.4
	C123.8,22.1,125.5,23.6,127.5,23.6z"/>
<path class="st0" d="M134.7,13.4h1.8v2.5h0c0.9-1.9,2.2-2.8,4.3-2.7v2c-3.1,0-4.2,1.8-4.2,4.7v5.2h-1.9V13.4L134.7,13.4z"/>
<path class="st0" d="M147.2,26.6c-0.9,2.3-1.7,3.1-3.4,3.1c-0.5,0-0.9,0-1.3-0.2v-1.8c0.4,0.1,0.7,0.3,1.1,0.3
	c0.8,0,1.2-0.4,1.6-1.1l0.8-2l-4.6-11.6h2.2l3.4,9.6h0l3.3-9.6h2L147.2,26.6z"/>
<path class="st0" d="M165.2,13.1c3.7,0,5.7,2.7,5.7,6.1c0,3.4-2,6.1-5.7,6.1c-3.7,0-5.7-2.7-5.7-6.1
	C159.5,15.8,161.5,13.1,165.2,13.1z M165.2,23.6c2,0,3.6-1.6,3.6-4.4c0-2.8-1.6-4.4-3.6-4.4c-2,0-3.6,1.6-3.6,4.4
	C161.6,22.1,163.2,23.6,165.2,23.6z"/>
<path class="st0" d="M173.9,15.1h-2v-1.7h2v-1.7c0-1.9,1.1-2.9,3.2-2.9c0.4,0,0.9,0.1,1.2,0.2v1.7c-0.3-0.1-0.7-0.2-1.1-0.2
	c-0.9,0-1.5,0.3-1.5,1.3v1.6h2.3v1.7h-2.3v10h-1.9L173.9,15.1L173.9,15.1z"/>
<path class="st0" d="M55.8,37.3C55.6,35,54,34,51.8,34c-1.8,0-3.6,0.7-3.6,2.8c0,2,2.6,2.3,5.2,2.9c2.6,0.6,5.1,1.5,5.1,4.7
	c0,3.4-3.4,4.8-6.3,4.8c-3.6,0-6.7-1.8-6.7-5.7h2c0,2.7,2.3,3.9,4.7,3.9c1.9,0,4.1-0.6,4.1-2.9c0-2.2-2.6-2.6-5.1-3.2
	s-5.2-1.3-5.2-4.3c0-3.3,2.9-4.7,5.8-4.7c3.3,0,5.8,1.6,5.9,5.1L55.8,37.3L55.8,37.3z"/>
<path class="st0" d="M65.1,50.3c-0.9,2.3-1.7,3.1-3.4,3.1c-0.5,0-0.9,0-1.3-0.2v-1.8c0.4,0.1,0.7,0.3,1.1,0.3c0.8,0,1.2-0.4,1.6-1.1
	l0.8-2L59.2,37h2.2l3.4,9.6h0l3.3-9.6h2L65.1,50.3z"/>
<path class="st0" d="M72.7,45c0.1,1.7,1.6,2.3,3.1,2.3c1.2,0,2.8-0.3,2.8-1.7c0-1.5-1.9-1.7-3.8-2.2C72.9,43,71,42.3,71,40.1
	c0-2.3,2.3-3.3,4.4-3.3c2.6,0,4.6,0.8,4.8,3.7h-1.9c-0.1-1.5-1.4-2-2.7-2c-1.2,0-2.5,0.3-2.5,1.5c0,1.4,2,1.6,3.8,2
	c1.9,0.4,3.8,1.1,3.8,3.3c0,2.8-2.6,3.7-5,3.7c-2.6,0-4.8-1.1-4.9-4H72.7L72.7,45z"/>
<path class="st0" d="M85.4,37.1h2.3v1.7h-2.3V46c0,0.9,0.2,1,1.4,1h0.9v1.7h-1.5c-2,0-2.8-0.4-2.8-2.6v-7.4h-2v-1.7h2v-3.5h1.9
	L85.4,37.1L85.4,37.1z"/>
<path class="st0" d="M99.5,45c-0.5,2.6-2.4,4-5,4c-3.7,0-5.5-2.6-5.6-6.1c0-3.5,2.3-6.1,5.5-6.1c4.1,0,5.4,3.9,5.3,6.7H91
	c-0.1,2,1.1,3.8,3.6,3.8c1.6,0,2.7-0.8,3-2.3L99.5,45L99.5,45z M97.7,41.8c-0.1-1.8-1.5-3.3-3.4-3.3c-2,0-3.2,1.5-3.3,3.3H97.7z"/>
<path class="st0" d="M101.7,37.1h1.8v1.7h0c0.9-1.3,2.2-2,3.8-2c1.4,0,2.7,0.6,3.2,2c0.8-1.2,2.2-2,3.7-2c2.3,0,3.9,1,3.9,3.4v8.6
	h-1.9v-7.7c0-1.4-0.4-2.6-2.3-2.6c-1.9,0-3,1.2-3,3v7.3H109v-7.7c0-1.5-0.5-2.6-2.2-2.6c-2.3,0-3.1,2.1-3.1,3v7.3h-1.9L101.7,37.1
	L101.7,37.1z"/>
<path class="st0" d="M121.8,45c0.1,1.7,1.6,2.3,3.1,2.3c1.2,0,2.8-0.3,2.8-1.7c0-1.5-1.9-1.7-3.8-2.2c-1.9-0.4-3.8-1.1-3.8-3.3
	c0-2.3,2.3-3.3,4.4-3.3c2.6,0,4.6,0.8,4.8,3.7h-1.9c-0.1-1.5-1.4-2-2.7-2c-1.2,0-2.5,0.3-2.5,1.5c0,1.4,2,1.6,3.8,2
	c1.9,0.4,3.8,1.1,3.8,3.3c0,2.8-2.6,3.7-5,3.7c-2.6,0-4.8-1.1-4.9-4H121.8L121.8,45z"/>
<path class="st0" d="M138.6,32.6h7.1c3.2,0,4.9,1.8,4.9,4.8s-1.7,4.8-4.9,4.8h-4.9v6.6h-2.1V32.6L138.6,32.6z M140.7,40.3h4.2
	c2.4,0,3.5-1,3.5-3c0-1.9-1.1-3-3.5-3h-4.2V40.3z"/>
<path class="st0" d="M152.6,32.6h1.9v6.2h0c0.6-1.4,2.3-2,3.7-2c3.1,0,4,1.8,4,4.3v7.7h-1.9v-7.9c0-1.4-0.9-2.3-2.4-2.3
	c-2.3,0-3.5,1.6-3.5,3.7v6.6h-1.9L152.6,32.6L152.6,32.6z"/>
<path class="st0" d="M174.8,48.7c-0.3,0.2-0.8,0.3-1.4,0.3c-1,0-1.6-0.5-1.6-1.8c-1.1,1.2-2.5,1.8-4.1,1.8c-2.1,0-3.9-0.9-3.9-3.3
	c0-2.6,2-3.2,4-3.6c2.1-0.4,3.9-0.3,3.9-1.7c0-1.7-1.4-1.9-2.6-1.9c-1.6,0-2.8,0.5-2.9,2.2h-1.9c0.1-2.9,2.3-3.9,4.9-3.9
	c2.1,0,4.4,0.5,4.4,3.2v6c0,0.9,0,1.3,0.6,1.3c0.2,0,0.3,0,0.6-0.1L174.8,48.7L174.8,48.7z M171.7,42.7c-0.7,0.5-2.2,0.6-3.5,0.8
	c-1.3,0.2-2.3,0.7-2.3,2.1c0,1.3,1.1,1.7,2.3,1.7c2.5,0,3.6-1.6,3.6-2.6L171.7,42.7L171.7,42.7z"/>
<path class="st0" d="M176.6,37.1h1.8v2.5h0c0.9-1.9,2.2-2.8,4.3-2.7v2c-3.1,0-4.2,1.8-4.2,4.7v5.2h-1.9L176.6,37.1L176.6,37.1z"/>
<path class="st0" d="M184.1,37.1h1.8v1.7h0c0.9-1.3,2.2-2,3.8-2c1.4,0,2.7,0.6,3.2,2c0.8-1.2,2.2-2,3.7-2c2.3,0,3.9,1,3.9,3.4v8.6
	h-1.9v-7.7c0-1.4-0.4-2.6-2.3-2.6c-1.9,0-3,1.2-3,3v7.3h-1.9v-7.7c0-1.5-0.5-2.6-2.2-2.6c-2.3,0-3.1,2.1-3.1,3v7.3h-1.9L184.1,37.1
	L184.1,37.1z"/>
<path class="st0" d="M213.4,48.7c-0.3,0.2-0.8,0.3-1.4,0.3c-1,0-1.6-0.5-1.6-1.8c-1.1,1.2-2.5,1.8-4.1,1.8c-2.1,0-3.9-0.9-3.9-3.3
	c0-2.6,2-3.2,4-3.6c2.1-0.4,3.9-0.3,3.9-1.7c0-1.7-1.4-1.9-2.6-1.9c-1.6,0-2.8,0.5-2.9,2.2h-1.9c0.1-2.9,2.3-3.9,4.9-3.9
	c2.1,0,4.4,0.5,4.4,3.2v6c0,0.9,0,1.3,0.6,1.3c0.2,0,0.3,0,0.6-0.1L213.4,48.7L213.4,48.7z M210.3,42.7c-0.7,0.5-2.2,0.6-3.5,0.8
	c-1.3,0.2-2.3,0.7-2.3,2.1c0,1.3,1.1,1.7,2.3,1.7c2.5,0,3.6-1.6,3.6-2.6L210.3,42.7L210.3,42.7z"/>
<path class="st0" d="M222.9,40.8c-0.3-1.5-1.3-2.3-2.9-2.3c-2.8,0-3.6,2.2-3.6,4.6c0,2.1,1,4.3,3.4,4.3c1.9,0,3-1.1,3.2-2.8h2
	c-0.4,2.8-2.2,4.5-5.1,4.5c-3.6,0-5.5-2.5-5.5-6c0-3.5,1.8-6.3,5.5-6.3c2.6,0,4.8,1.2,5,4L222.9,40.8L222.9,40.8z"/>
<path class="st0" d="M232.1,36.8c3.7,0,5.7,2.7,5.7,6.1c0,3.4-2,6.1-5.7,6.1c-3.7,0-5.7-2.7-5.7-6.1
	C226.4,39.5,228.4,36.8,232.1,36.8z M232.1,47.3c2,0,3.6-1.6,3.6-4.4c0-2.8-1.6-4.4-3.6-4.4c-2,0-3.6,1.6-3.6,4.4
	C228.5,45.7,230.1,47.3,232.1,47.3z"/>
<path class="st0" d="M239.8,32.6h1.9v16.1h-1.9V32.6z"/>
<path class="st0" d="M249.4,36.8c3.7,0,5.7,2.7,5.7,6.1c0,3.4-2,6.1-5.7,6.1c-3.7,0-5.7-2.7-5.7-6.1
	C243.8,39.5,245.7,36.8,249.4,36.8z M249.4,47.3c2,0,3.6-1.6,3.6-4.4c0-2.8-1.6-4.4-3.6-4.4c-2,0-3.6,1.6-3.6,4.4
	C245.8,45.7,247.4,47.3,249.4,47.3z"/>
<path class="st0" d="M267.4,47.7c0,3.8-1.7,5.7-5.4,5.7c-2.2,0-4.7-0.9-4.8-3.4h1.9c0.1,1.4,1.8,1.9,3,1.9c2.5,0,3.5-1.8,3.5-4.4
	v-0.8h0c-0.6,1.4-2.2,2.1-3.6,2.1c-3.5,0-5.2-2.7-5.2-5.9c0-2.8,1.4-6.2,5.4-6.2c1.5,0,2.8,0.7,3.5,1.9h0v-1.7h1.8L267.4,47.7
	L267.4,47.7z M265.5,42.6c0-2.1-0.9-4.2-3.3-4.2c-2.5,0-3.5,2-3.5,4.2c0,2.1,0.8,4.4,3.3,4.4C264.6,47.2,265.5,44.8,265.5,42.6z"/>
<path class="st0" d="M274.9,50.3c-0.9,2.3-1.7,3.1-3.4,3.1c-0.5,0-0.9,0-1.3-0.2v-1.8c0.4,0.1,0.7,0.3,1.1,0.3
	c0.8,0,1.2-0.4,1.6-1.1l0.8-2L269.1,37h2.2l3.4,9.6h0L278,37h2L274.9,50.3z"/>
<path class="st0" d="M18.5,15.4c-6.8,3.7-17.1,6.7-18.3,14.1C-1,22.1,3.6,17.9,10.7,14.1C17.7,10.3,27.8,7.4,29,0
	C30.2,7.4,25.9,11.5,18.5,15.4"/>
<path class="st0" d="M18.5,43.6c7.2,3.8,11.7,8,10.5,15.4C27.8,51.6,17.5,48.6,10.7,45C3.4,41-1,36.9,0.2,29.5
	C1.4,36.9,11.5,39.8,18.5,43.6"/>
<path class="st1" d="M33.4,28.3c0,3.2-2.6,5.8-5.8,5.8c-3.2,0-5.9-2.6-5.9-5.8c0-3.2,2.6-5.8,5.9-5.8C30.8,22.4,33.4,25,33.4,28.3z"
	/>
<path class="st2" d="M27.6,32.6c0,4.5-3.6,8.1-8.1,8.1s-8.1-3.6-8.1-8.1c0-4.5,3.6-8.1,8.1-8.1S27.6,28.2,27.6,32.6z"/>
<path class="st3" d="M23.8,24.9c0,3.5-2.8,6.3-6.3,6.3s-6.3-2.8-6.3-6.3s2.8-6.3,6.3-6.3S23.8,21.4,23.8,24.9z"/>
</svg>
