<?xml version="1.0" encoding="utf-8"?>
<!-- Generator: Adobe Illustrator 25.4.1, SVG Export Plug-In . SVG Version: 6.00 Build 0)  -->
<svg version="1.1" id="Layer_1" xmlns="http://www.w3.org/2000/svg" xmlns:xlink="http://www.w3.org/1999/xlink" x="0px" y="0px"
	 width="180px" height="37.9px" viewBox="0 0 180 37.9" style="enable-background:new 0 0 180 37.9;" xml:space="preserve">
<style type="text/css">
	.st0{fill:#58595B;}
	
		.st1{clip-path:url(#SVGID_00000116923262419285494200000011453836331691338382_);fill:url(#SVGID_00000098199913182882797350000016500433871976402358_);}
	
		.st2{clip-path:url(#SVGID_00000092423054978775773010000000191126835740959892_);fill:url(#SVGID_00000019658643121462370680000018254728102089400737_);}
	.st3{opacity:0.9;fill:#008FC4;enable-background:new    ;}
	.st4{opacity:0.55;fill:#00ABD7;enable-background:new    ;}
	.st5{opacity:0.74;fill:#009FCE;enable-background:new    ;}
</style>
<path class="st0" d="M29.9,5.8h1.4V15h5.5v1.2h-6.9L29.9,5.8L29.9,5.8z"/>
<path class="st0" d="M44.4,16.1c-0.2,0.1-0.5,0.2-0.9,0.2c-0.6,0-1-0.4-1-1.2c-0.7,0.8-1.6,1.2-2.7,1.2c-1.4,0-2.5-0.6-2.5-2.1
	c0-1.7,1.3-2.1,2.5-2.3c1.4-0.3,2.5-0.2,2.5-1.1c0-1.1-0.9-1.3-1.7-1.3c-1,0-1.8,0.3-1.9,1.4h-1.2c0.1-1.9,1.5-2.5,3.2-2.5
	c1.4,0,2.8,0.3,2.8,2.1v3.9c0,0.6,0,0.8,0.4,0.8c0.1,0,0.2,0,0.4-0.1V16.1z M42.4,12.2c-0.5,0.4-1.4,0.4-2.2,0.5
	c-0.8,0.1-1.5,0.4-1.5,1.4c0,0.8,0.7,1.1,1.5,1.1c1.6,0,2.3-1,2.3-1.7V12.2z"/>
<path class="st0" d="M45.4,5.8h1.2v3.9h0c0.4-0.8,1.4-1.2,2.4-1.2c2.3,0,3.5,1.8,3.5,3.9s-1.1,3.9-3.4,3.9c-0.8,0-1.9-0.3-2.4-1.2h0
	v1h-1.2L45.4,5.8L45.4,5.8z M48.9,9.5c-1.6,0-2.3,1.4-2.3,2.8c0,1.5,0.7,2.8,2.4,2.8c1.7,0,2.3-1.4,2.3-2.9
	C51.2,10.9,50.5,9.5,48.9,9.5z"/>
<path class="st0" d="M57.2,8.4c2.4,0,3.7,1.7,3.7,3.9s-1.3,3.9-3.7,3.9c-2.4,0-3.7-1.7-3.7-3.9S54.8,8.4,57.2,8.4z M57.2,15.2
	c1.3,0,2.3-1,2.3-2.8c0-1.8-1-2.8-2.3-2.8s-2.3,1-2.3,2.8C54.9,14.2,55.9,15.2,57.2,15.2z"/>
<path class="st0" d="M62.1,8.6h1.2v1.6h0C63.8,9,64.7,8.4,66,8.5v1.3c-2,0-2.7,1.1-2.7,3v3.3H62L62.1,8.6L62.1,8.6z"/>
<path class="st0" d="M73.4,16.1c-0.2,0.1-0.5,0.2-0.9,0.2c-0.6,0-1-0.4-1-1.2c-0.7,0.8-1.6,1.2-2.7,1.2c-1.4,0-2.5-0.6-2.5-2.1
	c0-1.7,1.3-2.1,2.5-2.3c1.4-0.3,2.5-0.2,2.5-1.1c0-1.1-0.9-1.3-1.7-1.3c-1,0-1.8,0.3-1.9,1.4h-1.2c0.1-1.9,1.5-2.5,3.2-2.5
	c1.4,0,2.8,0.3,2.8,2.1v3.9c0,0.6,0,0.8,0.4,0.8c0.1,0,0.2,0,0.4-0.1V16.1z M71.4,12.2c-0.5,0.4-1.4,0.4-2.2,0.5
	c-0.8,0.1-1.5,0.4-1.5,1.4c0,0.8,0.7,1.1,1.5,1.1c1.6,0,2.3-1,2.3-1.7V12.2z"/>
<path class="st0" d="M76.3,8.6h1.5v1.1h-1.5v4.7c0,0.6,0.2,0.7,0.9,0.7h0.6v1.1h-0.9c-1.3,0-1.8-0.3-1.8-1.6V9.7h-1.3V8.6H75V6.3
	h1.2V8.6z"/>
<path class="st0" d="M82,8.4c2.4,0,3.7,1.7,3.7,3.9s-1.3,3.9-3.7,3.9c-2.4,0-3.7-1.7-3.7-3.9C78.3,10.2,79.6,8.4,82,8.4z M82,15.2
	c1.3,0,2.3-1,2.3-2.8c0-1.8-1-2.8-2.3-2.8s-2.3,1-2.3,2.8C79.6,14.2,80.7,15.2,82,15.2z"/>
<path class="st0" d="M86.6,8.6h1.2v1.6h0c0.6-1.2,1.4-1.8,2.7-1.7v1.3c-2,0-2.7,1.1-2.7,3v3.3h-1.2L86.6,8.6L86.6,8.6z"/>
<path class="st0" d="M94.6,17.1c-0.6,1.5-1.1,2-2.2,2c-0.3,0-0.6,0-0.9-0.1v-1.1c0.2,0.1,0.5,0.2,0.7,0.2c0.5,0,0.8-0.3,1-0.7
	l0.5-1.3l-3-7.5h1.4l2.2,6.1h0l2.1-6.1h1.3L94.6,17.1z"/>
<path class="st0" d="M106.2,8.4c2.4,0,3.7,1.7,3.7,3.9s-1.3,3.9-3.7,3.9c-2.4,0-3.7-1.7-3.7-3.9S103.8,8.4,106.2,8.4z M106.2,15.2
	c1.3,0,2.3-1,2.3-2.8c0-1.8-1-2.8-2.3-2.8c-1.3,0-2.3,1-2.3,2.8C103.9,14.2,104.9,15.2,106.2,15.2z"/>
<path class="st0" d="M111.8,9.7h-1.3V8.6h1.3V7.5c0-1.2,0.7-1.9,2.1-1.9c0.2,0,0.6,0,0.8,0.1v1.1c-0.2-0.1-0.5-0.1-0.7-0.1
	c-0.6,0-0.9,0.2-0.9,0.8v1h1.5v1.1h-1.5v6.4h-1.2L111.8,9.7L111.8,9.7z"/>
<path class="st0" d="M35.9,24c-0.2-1.5-1.1-2.1-2.6-2.1c-1.2,0-2.3,0.4-2.3,1.8c0,1.3,1.6,1.5,3.3,1.8c1.6,0.4,3.3,1,3.3,3
	c0,2.2-2.2,3.1-4,3.1c-2.3,0-4.3-1.1-4.3-3.7h1.3c0,1.7,1.5,2.5,3,2.5c1.3,0,2.6-0.4,2.6-1.9c0-1.4-1.6-1.7-3.3-2
	c-1.6-0.4-3.3-0.8-3.3-2.7c0-2.1,1.9-3,3.8-3c2.1,0,3.7,1,3.8,3.3L35.9,24L35.9,24z"/>
<path class="st0" d="M41.9,32.3c-0.6,1.5-1.1,2-2.2,2c-0.3,0-0.6,0-0.9-0.1V33c0.2,0.1,0.5,0.2,0.7,0.2c0.5,0,0.8-0.3,1-0.7l0.5-1.3
	l-3-7.5h1.4l2.2,6.1h0l2.1-6.1h1.3L41.9,32.3z"/>
<path class="st0" d="M46.7,29c0,1.1,1,1.5,2,1.5c0.8,0,1.8-0.2,1.8-1.1c0-1-1.2-1.1-2.5-1.4c-1.2-0.3-2.5-0.7-2.5-2.1
	c0-1.5,1.5-2.1,2.8-2.1c1.6,0,3,0.5,3.1,2.4h-1.2c-0.1-1-0.9-1.3-1.7-1.3c-0.7,0-1.6,0.2-1.6,1c0,0.9,1.3,1,2.5,1.3
	c1.2,0.3,2.5,0.7,2.5,2.1c0,1.8-1.7,2.4-3.2,2.4c-1.7,0-3.1-0.7-3.2-2.5L46.7,29L46.7,29z"/>
<path class="st0" d="M54.9,23.8h1.5v1.1h-1.5v4.7c0,0.6,0.2,0.7,0.9,0.7h0.6v1.1h-0.9c-1.3,0-1.8-0.3-1.8-1.6v-4.8h-1.3v-1.1h1.3
	v-2.3h1.2V23.8z"/>
<path class="st0" d="M64,28.9c-0.3,1.6-1.5,2.6-3.2,2.6c-2.4,0-3.5-1.6-3.6-3.9c0-2.3,1.5-3.9,3.5-3.9c2.7,0,3.5,2.5,3.4,4.3h-5.6
	c0,1.3,0.7,2.5,2.3,2.5c1,0,1.7-0.5,1.9-1.5H64z M62.8,26.9c-0.1-1.2-0.9-2.1-2.2-2.1c-1.3,0-2.1,1-2.1,2.1H62.8z"/>
<path class="st0" d="M65.4,23.8h1.2v1.1h0c0.5-0.8,1.4-1.3,2.4-1.3c0.9,0,1.7,0.4,2.1,1.3c0.5-0.8,1.4-1.3,2.4-1.3
	c1.5,0,2.5,0.6,2.5,2.2v5.5h-1.2v-4.9c0-0.9-0.3-1.7-1.5-1.7c-1.2,0-2,0.7-2,1.9v4.7H70v-4.9c0-1-0.3-1.7-1.4-1.7
	c-1.5,0-2,1.4-2,1.9v4.7h-1.2L65.4,23.8L65.4,23.8z"/>
<path class="st0" d="M78.3,29c0,1.1,1,1.5,2,1.5c0.8,0,1.8-0.2,1.8-1.1c0-1-1.2-1.1-2.5-1.4c-1.2-0.3-2.5-0.7-2.5-2.1
	c0-1.5,1.5-2.1,2.8-2.1c1.6,0,3,0.5,3.1,2.4h-1.2c-0.1-1-0.9-1.3-1.7-1.3c-0.7,0-1.6,0.2-1.6,1c0,0.9,1.3,1,2.5,1.3
	c1.2,0.3,2.5,0.7,2.5,2.1c0,1.8-1.7,2.4-3.2,2.4c-1.7,0-3.1-0.7-3.2-2.5L78.3,29L78.3,29z"/>
<path class="st0" d="M89.1,21h4.5c2.1,0,3.2,1.1,3.2,3.1s-1.1,3.1-3.2,3.1h-3.2v4.2h-1.4V21z M90.5,25.9h2.7c1.6,0,2.3-0.7,2.3-1.9
	c0-1.2-0.7-1.9-2.3-1.9h-2.7V25.9z"/>
<path class="st0" d="M98.1,21h1.2v4h0c0.4-0.9,1.5-1.3,2.4-1.3c2,0,2.6,1.1,2.6,2.7v4.9h-1.2v-5.1c0-0.9-0.6-1.5-1.5-1.5
	c-1.5,0-2.2,1-2.2,2.4v4.2h-1.2V21z"/>
<path class="st0" d="M112.4,31.3c-0.2,0.1-0.5,0.2-0.9,0.2c-0.6,0-1-0.4-1-1.2c-0.7,0.8-1.6,1.2-2.7,1.2c-1.4,0-2.5-0.6-2.5-2.1
	c0-1.7,1.3-2.1,2.5-2.3c1.4-0.3,2.5-0.2,2.5-1.1c0-1.1-0.9-1.3-1.7-1.3c-1,0-1.8,0.3-1.9,1.4h-1.3c0.1-1.9,1.5-2.5,3.2-2.5
	c1.4,0,2.8,0.3,2.8,2.1v3.9c0,0.6,0,0.8,0.4,0.8c0.1,0,0.2,0,0.4-0.1L112.4,31.3L112.4,31.3z M110.4,27.5c-0.5,0.4-1.4,0.4-2.2,0.5
	c-0.8,0.1-1.5,0.4-1.5,1.4c0,0.8,0.7,1.1,1.5,1.1c1.6,0,2.3-1,2.3-1.7V27.5z"/>
<path class="st0" d="M113.5,23.8h1.2v1.6h0c0.6-1.2,1.4-1.8,2.7-1.7V25c-2,0-2.7,1.1-2.7,3v3.3h-1.2L113.5,23.8L113.5,23.8z"/>
<path class="st0" d="M118.4,23.8h1.2v1.1h0c0.5-0.8,1.4-1.3,2.4-1.3c0.9,0,1.7,0.4,2.1,1.3c0.5-0.8,1.4-1.3,2.4-1.3
	c1.5,0,2.5,0.6,2.5,2.2v5.5h-1.2v-4.9c0-0.9-0.3-1.7-1.5-1.7c-1.2,0-2,0.7-2,1.9v4.7H123v-4.9c0-1-0.3-1.7-1.4-1.7
	c-1.5,0-2,1.4-2,1.9v4.7h-1.2V23.8z"/>
<path class="st0" d="M137.2,31.3c-0.2,0.1-0.5,0.2-0.9,0.2c-0.6,0-1-0.4-1-1.2c-0.7,0.8-1.6,1.2-2.7,1.2c-1.4,0-2.5-0.6-2.5-2.1
	c0-1.7,1.3-2.1,2.5-2.3c1.4-0.3,2.5-0.2,2.5-1.1c0-1.1-0.9-1.3-1.7-1.3c-1,0-1.8,0.3-1.9,1.4h-1.2c0.1-1.9,1.5-2.5,3.2-2.5
	c1.4,0,2.8,0.3,2.8,2.1v3.9c0,0.6,0,0.8,0.4,0.8c0.1,0,0.2,0,0.4-0.1L137.2,31.3L137.2,31.3z M135.2,27.5c-0.5,0.4-1.4,0.4-2.2,0.5
	c-0.8,0.1-1.5,0.4-1.5,1.4c0,0.8,0.7,1.1,1.5,1.1c1.6,0,2.3-1,2.3-1.7V27.5z"/>
<path class="st0" d="M143.3,26.2c-0.2-0.9-0.8-1.5-1.9-1.5c-1.8,0-2.3,1.4-2.3,2.9c0,1.4,0.6,2.7,2.2,2.7c1.2,0,1.9-0.7,2.1-1.8h1.3
	c-0.3,1.8-1.4,2.9-3.3,2.9c-2.3,0-3.5-1.6-3.5-3.8c0-2.3,1.2-4,3.5-4c1.7,0,3.1,0.8,3.2,2.6L143.3,26.2L143.3,26.2z"/>
<path class="st0" d="M149.2,23.6c2.4,0,3.7,1.7,3.7,3.9s-1.3,3.9-3.7,3.9c-2.4,0-3.7-1.7-3.7-3.9C145.6,25.4,146.8,23.6,149.2,23.6z
	 M149.2,30.4c1.3,0,2.3-1,2.3-2.8c0-1.8-1-2.8-2.3-2.8s-2.3,1-2.3,2.8C146.9,29.4,147.9,30.4,149.2,30.4z"/>
<path class="st0" d="M154.2,21h1.2v10.4h-1.2V21z"/>
<path class="st0" d="M160.4,23.6c2.4,0,3.7,1.7,3.7,3.9s-1.3,3.9-3.7,3.9c-2.4,0-3.7-1.7-3.7-3.9C156.7,25.4,158,23.6,160.4,23.6z
	 M160.4,30.4c1.3,0,2.3-1,2.3-2.8c0-1.8-1-2.8-2.3-2.8s-2.3,1-2.3,2.8C158,29.4,159.1,30.4,160.4,30.4z"/>
<path class="st0" d="M171.9,30.7c0,2.4-1.1,3.7-3.5,3.7c-1.4,0-3-0.6-3.1-2.2h1.2c0.1,0.9,1.1,1.2,1.9,1.2c1.6,0,2.3-1.2,2.3-2.8V30
	h0c-0.4,0.9-1.4,1.4-2.3,1.4c-2.2,0-3.4-1.7-3.4-3.8c0-1.8,0.9-4,3.5-4c0.9,0,1.8,0.4,2.2,1.3h0v-1.1h1.2L171.9,30.7L171.9,30.7z
	 M170.7,27.4c0-1.3-0.6-2.7-2.1-2.7c-1.6,0-2.2,1.3-2.2,2.7c0,1.4,0.5,2.9,2.1,2.9C170.1,30.3,170.7,28.8,170.7,27.4z"/>
<path class="st0" d="M176.7,32.3c-0.6,1.5-1.1,2-2.2,2c-0.3,0-0.6,0-0.9-0.1V33c0.2,0.1,0.5,0.2,0.7,0.2c0.5,0,0.8-0.3,1-0.7
	l0.5-1.3l-3-7.5h1.4l2.2,6.1h0l2.1-6.1h1.3L176.7,32.3z"/>
<g>
	<g>
		<defs>
			<path id="SVGID_1_" d="M11.9,9.9c-4.4,2.4-11,4.3-11.8,9.1c-0.8-4.8,2.2-7.4,6.8-9.9c4.5-2.4,11-4.3,11.8-9.1
				C19.4,4.8,16.6,7.4,11.9,9.9"/>
		</defs>
		<clipPath id="SVGID_00000153673856518539264310000000970310747491564474_">
			<use xlink:href="#SVGID_1_"  style="overflow:visible;"/>
		</clipPath>
		
			<linearGradient id="SVGID_00000048486745074458311790000007728859203482979219_" gradientUnits="userSpaceOnUse" x1="-94.5187" y1="-51.6132" x2="-94.2854" y2="-51.6132" gradientTransform="matrix(-80.5146 0 0 80.5146 -7591.3511 4165.0972)">
			<stop  offset="0.1" style="stop-color:#3E96A2"/>
			<stop  offset="0.344" style="stop-color:#00828E"/>
			<stop  offset="0.8674" style="stop-color:#005660"/>
			<stop  offset="0.9" style="stop-color:#00535E"/>
		</linearGradient>
		
			<rect x="-0.7" style="clip-path:url(#SVGID_00000153673856518539264310000000970310747491564474_);fill:url(#SVGID_00000048486745074458311790000007728859203482979219_);" width="20.1" height="19"/>
	</g>
</g>
<g>
	<g>
		<defs>
			<path id="SVGID_00000047742820870119786830000013584379880902790037_" d="M11.9,28c4.6,2.5,7.5,5.2,6.8,9.9
				c-0.8-4.8-7.4-6.7-11.8-9.1c-4.7-2.6-7.5-5.2-6.8-9.9C0.9,23.7,7.4,25.6,11.9,28"/>
		</defs>
		<clipPath id="SVGID_00000105384432845704169820000002874254326812649404_">
			<use xlink:href="#SVGID_00000047742820870119786830000013584379880902790037_"  style="overflow:visible;"/>
		</clipPath>
		
			<linearGradient id="SVGID_00000127745908550796183530000004438260141845288109_" gradientUnits="userSpaceOnUse" x1="-87.5257" y1="-63.5379" x2="-87.2738" y2="-63.5379" gradientTransform="matrix(-78.3745 -74.6247 -74.6247 78.3745 -11582.1318 -1514.0706)">
			<stop  offset="0.1" style="stop-color:#0078A5"/>
			<stop  offset="0.3145" style="stop-color:#0085B5"/>
			<stop  offset="0.6981" style="stop-color:#009ED1"/>
			<stop  offset="0.9" style="stop-color:#27AAE1"/>
		</linearGradient>
		
			<polygon style="clip-path:url(#SVGID_00000105384432845704169820000002874254326812649404_);fill:url(#SVGID_00000127745908550796183530000004438260141845288109_);" points="
			28.2,28 8.9,8.1 -9.4,28.9 9.9,48.8 		"/>
	</g>
</g>
<path class="st3" d="M21.5,18.2c0,2.1-1.7,3.8-3.8,3.8s-3.8-1.7-3.8-3.8s1.7-3.8,3.8-3.8C19.8,14.4,21.5,16.1,21.5,18.2z"/>
<path class="st4" d="M17.7,21c0,2.9-2.3,5.2-5.2,5.2S7.4,23.9,7.4,21s2.3-5.2,5.2-5.2S17.7,18.1,17.7,21z"/>
<path class="st5" d="M15.3,16c0,2.3-1.8,4.1-4.1,4.1S7.1,18.2,7.1,16c0-2.3,1.8-4.1,4.1-4.1C13.5,11.9,15.3,13.7,15.3,16z"/>
</svg>
