<?xml version="1.0" encoding="utf-8"?>
<!-- Generator: Adobe Illustrator 25.4.1, SVG Export Plug-In . SVG Version: 6.00 Build 0)  -->
<svg version="1.1" id="Layer_1" xmlns="http://www.w3.org/2000/svg" xmlns:xlink="http://www.w3.org/1999/xlink" x="0px" y="0px"
	 width="73px" height="27px" viewBox="0 0 73 27" style="enable-background:new 0 0 73 27;" xml:space="preserve">
<style type="text/css">
	.st0{fill:#004F58;}
	
		.st1{clip-path:url(#SVGID_00000134218861346872198560000005444521197544464274_);fill:url(#SVGID_00000039853189843042438090000004900712726925958847_);}
	
		.st2{clip-path:url(#SVGID_00000046335169650453389790000010493685677747882382_);fill:url(#SVGID_00000032645221502941790720000000120691189259353020_);}
	
		.st3{clip-path:url(#SVGID_00000119119575091702016720000003551251075382296966_);fill:url(#SVGID_00000159445363360268280700000014949076297123069341_);}
	
		.st4{clip-path:url(#SVGID_00000036951279458413261410000018106706058216389282_);fill:url(#SVGID_00000175304802890614577240000014133371976698535086_);}
	.st5{fill:#F15A29;}
</style>
<g>
	<polygon class="st0" points="0,0.4 2.4,0.4 2.4,12 16.6,12 16.6,0.4 19,0.4 19,26.6 16.6,26.6 16.6,14 2.4,14 2.4,26.6 0,26.6 	"/>
	<g>
		<g>
			<defs>
				<rect id="SVGID_1_" x="40.5" y="0.4" width="2.4" height="10.3"/>
			</defs>
			<clipPath id="SVGID_00000103970370531280024930000013594561117553533876_">
				<use xlink:href="#SVGID_1_"  style="overflow:visible;"/>
			</clipPath>
			
				<radialGradient id="SVGID_00000168804079419664111610000005871926743977387686_" cx="-915.6995" cy="-95.2887" r="0.164" gradientTransform="matrix(81.0734 0 0 -81.0734 74280.5078 -7711.896)" gradientUnits="userSpaceOnUse">
				<stop  offset="0" style="stop-color:#0090BA"/>
				<stop  offset="0.4632" style="stop-color:#008EB6"/>
				<stop  offset="0.63" style="stop-color:#0088AD"/>
				<stop  offset="0.7489" style="stop-color:#007F9E"/>
				<stop  offset="0.8451" style="stop-color:#00728A"/>
				<stop  offset="0.9264" style="stop-color:#006272"/>
				<stop  offset="0.9982" style="stop-color:#004F59"/>
				<stop  offset="1" style="stop-color:#004F58"/>
			</radialGradient>
			
				<rect x="40.5" y="0.4" style="clip-path:url(#SVGID_00000103970370531280024930000013594561117553533876_);fill:url(#SVGID_00000168804079419664111610000005871926743977387686_);" width="2.4" height="10.3"/>
		</g>
	</g>
	<g>
		<g>
			<defs>
				<rect id="SVGID_00000171710940871245846850000011257307067911079566_" x="40.5" y="16.4" width="2.4" height="10.3"/>
			</defs>
			<clipPath id="SVGID_00000003077180050492966850000000549607958565349816_">
				<use xlink:href="#SVGID_00000171710940871245846850000011257307067911079566_"  style="overflow:visible;"/>
			</clipPath>
			
				<radialGradient id="SVGID_00000083797518665660495350000014796414198587370414_" cx="-915.6236" cy="-95.3444" r="0.164" gradientTransform="matrix(80.0189 0 0 -80.0189 73308.8281 -7615.8457)" gradientUnits="userSpaceOnUse">
				<stop  offset="0" style="stop-color:#0090BA"/>
				<stop  offset="0.4632" style="stop-color:#008EB6"/>
				<stop  offset="0.63" style="stop-color:#0088AD"/>
				<stop  offset="0.7489" style="stop-color:#007F9E"/>
				<stop  offset="0.8451" style="stop-color:#00728A"/>
				<stop  offset="0.9264" style="stop-color:#006272"/>
				<stop  offset="0.9982" style="stop-color:#004F59"/>
				<stop  offset="1" style="stop-color:#004F58"/>
			</radialGradient>
			
				<rect x="40.5" y="16.4" style="clip-path:url(#SVGID_00000003077180050492966850000000549607958565349816_);fill:url(#SVGID_00000083797518665660495350000014796414198587370414_);" width="2.4" height="10.3"/>
		</g>
	</g>
	<g>
		<g>
			<defs>
				<rect id="SVGID_00000107579415312915225600000006086481704745868971_" x="28.6" y="12.3" width="10.3" height="2.4"/>
			</defs>
			<clipPath id="SVGID_00000003823062188337908510000015664863148850909605_">
				<use xlink:href="#SVGID_00000107579415312915225600000006086481704745868971_"  style="overflow:visible;"/>
			</clipPath>
			
				<radialGradient id="SVGID_00000036236275886053500260000002981130345812320152_" cx="-926.3286" cy="-96.5347" r="0.164" gradientTransform="matrix(0 -81.1552 -81.1552 0 -7792.6147 -75162.75)" gradientUnits="userSpaceOnUse">
				<stop  offset="0" style="stop-color:#0090BA"/>
				<stop  offset="0.4632" style="stop-color:#008EB6"/>
				<stop  offset="0.63" style="stop-color:#0088AD"/>
				<stop  offset="0.7489" style="stop-color:#007F9E"/>
				<stop  offset="0.8451" style="stop-color:#00728A"/>
				<stop  offset="0.9264" style="stop-color:#006272"/>
				<stop  offset="0.9982" style="stop-color:#004F59"/>
				<stop  offset="1" style="stop-color:#004F58"/>
			</radialGradient>
			
				<rect x="28.6" y="12.3" style="clip-path:url(#SVGID_00000003823062188337908510000015664863148850909605_);fill:url(#SVGID_00000036236275886053500260000002981130345812320152_);" width="10.3" height="2.4"/>
		</g>
	</g>
	<g>
		<g>
			<defs>
				<rect id="SVGID_00000113350933643640954280000017067981308229114010_" x="44.6" y="12.3" width="10.3" height="2.4"/>
			</defs>
			<clipPath id="SVGID_00000165944709462372047190000006157911096855351682_">
				<use xlink:href="#SVGID_00000113350933643640954280000017067981308229114010_"  style="overflow:visible;"/>
			</clipPath>
			
				<radialGradient id="SVGID_00000103251681211767971140000007816091997853472929_" cx="-926.4165" cy="-96.6382" r="0.1639" gradientTransform="matrix(0 -79.6819 -79.6819 0 -7658.5234 -73805.0156)" gradientUnits="userSpaceOnUse">
				<stop  offset="0" style="stop-color:#0090BA"/>
				<stop  offset="0.4632" style="stop-color:#008EB6"/>
				<stop  offset="0.63" style="stop-color:#0088AD"/>
				<stop  offset="0.7489" style="stop-color:#007F9E"/>
				<stop  offset="0.8451" style="stop-color:#00728A"/>
				<stop  offset="0.9264" style="stop-color:#006272"/>
				<stop  offset="0.9982" style="stop-color:#004F59"/>
				<stop  offset="1" style="stop-color:#004F58"/>
			</radialGradient>
			
				<rect x="44.6" y="12.3" style="clip-path:url(#SVGID_00000165944709462372047190000006157911096855351682_);fill:url(#SVGID_00000103251681211767971140000007816091997853472929_);" width="10.3" height="2.4"/>
		</g>
	</g>
	<rect x="24.2" y="5.8" class="st0" width="2.2" height="20.8"/>
	<g>
		<path class="st0" d="M26.9,1.8c0,0.9-0.7,1.5-1.5,1.5s-1.5-0.7-1.5-1.5s0.7-1.5,1.5-1.5C26.2,0.3,26.9,1,26.9,1.8"/>
		<rect x="40.5" y="12.3" class="st5" width="2.4" height="2.4"/>
		<path class="st0" d="M57.9,19.3c1,4,3.3,5.8,7.5,5.8c3.3,0,5.2-2.1,5.2-5.2c0-7.1-14.2-4.3-14.2-13c0-3.9,2.7-6.8,7.6-6.8
			c4.1,0,7.2,2.3,8.4,6.3l-2.1,0.6c-1-2.9-3-4.9-6.3-4.9c-3,0-5.2,1.8-5.2,4.8c0,1.8,0.5,3.1,5.3,4.9c7.4,2.8,8.9,4.6,8.9,8.4
			c0,4.5-3.8,6.9-8,6.9c-5,0-7.9-2.2-9.4-7L57.9,19.3z"/>
	</g>
</g>
</svg>
