<?xml version="1.0" encoding="utf-8"?>
<!-- Generator: Adobe Illustrator 25.4.1, SVG Export Plug-In . SVG Version: 6.00 Build 0)  -->
<svg version="1.1" id="Layer_1" xmlns="http://www.w3.org/2000/svg" xmlns:xlink="http://www.w3.org/1999/xlink" x="0px" y="0px"
	 width="208.1px" height="52.6px" viewBox="0 0 208.1 52.6" style="enable-background:new 0 0 208.1 52.6;" xml:space="preserve">
<style type="text/css">
	.st0{fill:#FFFFFF;}
	.st1{fill:#C41230;}
	.st2{fill:none;stroke:#000000;stroke-width:0.7682;}
	.st3{fill:none;stroke:#000000;stroke-width:0.1571;}
	.st4{fill:none;stroke:#000000;stroke-width:0.1599;}
</style>
<g>
	<path class="st0" d="M122.8,9c-0.4-0.9-1.1-1.6-2.2-1.9V6.5c0.7,0,3.1,0.1,3.6,0.1s2.7-0.1,3.4-0.1v0.6c-0.6,0.1-1.4,0.5-1.4,1.1
		c0,0.5,0.3,1.1,0.9,2.4l5.2,11.8l4.9-11.8c0.4-0.9,0.6-1.6,0.6-2.2c0-0.6-0.6-1.1-1.4-1.2V6.6c0.6,0,2.2,0.1,2.7,0.1
		c0.4,0,2.3-0.1,3-0.1v0.6c-1.2,0.4-1.9,1-2.7,2.6l-7.2,16.9h-1.5L122.8,9z"/>
	<path class="st0" d="M192.3,24.9c0.7,0.1,2.1,0.2,3.2,0.2c6,0,9.1-3.6,9.1-8.6c0-5.2-3.3-8.9-8.9-8.9c-1.1,0-2.6,0.1-3.4,0.2V24.9
		L192.3,24.9z M187.2,25.9c1.2-0.2,1.9-0.7,1.9-1.8V8.7c0-1.1-0.6-1.5-1.8-1.7V6.4c0.6,0,2.9,0.1,3.4,0.1c1,0,3.7-0.2,5.9-0.2
		c7.1,0,11.5,3.9,11.5,10c0,5.9-4.5,10.3-11.8,10.3c-2.2,0-4.7-0.1-5.7-0.1c-0.6,0-2.7,0.1-3.3,0.1L187.2,25.9L187.2,25.9z
		 M153.7,18.5l-3.2-7.4l-2.9,7.4H153.7z M141,25.9c1.3-0.3,1.9-1.1,2.4-2.2l6.4-15.4c0.3-0.6,0.6-1.9,0.6-1.9h1.8
		c0,0,0.3,1.3,0.6,1.9l6.7,15.4c0.5,1.1,1,1.9,2.4,2.2v0.5c-0.7,0-3-0.1-3.5-0.1s-2.7,0.1-3.4,0.1v-0.5c1-0.2,1.3-0.7,1.3-1.2
		c0-0.4-0.1-0.9-0.4-1.4l-1.4-3.3h-7.5l-1.3,3.3c-0.1,0.4-0.4,0.9-0.4,1.3c0,0.6,0.3,1,1.4,1.3v0.5c-0.6,0-2.4-0.1-2.8-0.1l-2.9,0.1
		L141,25.9z M90.3,18.5l-3.2-7.4l-2.9,7.4H90.3z M77.5,25.9c1.3-0.3,1.9-1.1,2.4-2.2l6.4-15.4c0.3-0.6,0.6-1.9,0.6-1.9h1.8
		c0,0,0.3,1.3,0.6,1.9L96,23.7c0.5,1.1,1,1.9,2.4,2.2v0.5c-0.7,0-3-0.1-3.5-0.1c-0.5,0-2.7,0.1-3.4,0.1v-0.5c1-0.2,1.3-0.7,1.3-1.2
		c0-0.4-0.1-0.9-0.4-1.4L90.9,20h-7.5l-1.3,3.3c-0.1,0.4-0.4,0.9-0.4,1.3c0,0.6,0.3,1,1.4,1.3v0.5c-0.6,0-2.4-0.1-2.8-0.1l-2.9,0.1
		L77.5,25.9z M90.3,18.5l-3.2-7.4l-2.9,7.4H90.3z M77.5,25.9c1.3-0.3,1.9-1.1,2.4-2.2l6.4-15.4c0.3-0.6,0.6-1.9,0.6-1.9h1.8
		c0,0,0.3,1.3,0.6,1.9L96,23.7c0.5,1.1,1,1.9,2.4,2.2v0.5c-0.7,0-3-0.1-3.5-0.1c-0.5,0-2.7,0.1-3.4,0.1v-0.5c1-0.2,1.3-0.7,1.3-1.2
		c0-0.4-0.1-0.9-0.4-1.4L90.9,20h-7.5l-1.3,3.3c-0.1,0.4-0.4,0.9-0.4,1.3c0,0.6,0.3,1,1.4,1.3v0.5c-0.6,0-2.4-0.1-2.8-0.1l-2.9,0.1
		L77.5,25.9z M53,25.9c0.9-0.2,1.6-0.6,1.6-1.7V8.6c0-1-0.6-1.4-1.6-1.7V6.3c0.5,0,2.6,0.1,3.2,0.1s2.9-0.1,3.4-0.1v0.6
		c-0.9,0.2-1.6,0.6-1.6,1.7v6.5h11.5V8.6c0-1.1-0.6-1.5-1.6-1.7V6.3c0.5,0,2.7,0.1,3.3,0.1c0.5,0,2.7-0.1,3.2-0.1v0.6
		c-0.9,0.2-1.6,0.6-1.6,1.7v15.6c0,1,0.6,1.4,1.6,1.7v0.5c-0.5,0-2.7-0.1-3.2-0.1c-0.6,0-2.8,0.1-3.3,0.1v-0.5
		c0.9-0.2,1.6-0.6,1.6-1.7v-7.3H57.9v7.3c0,1.1,0.6,1.4,1.6,1.7v0.5c-0.5,0-2.7-0.1-3.4-0.1c-0.5,0-2.7,0.1-3.2,0.1V25.9z"/>
	<path class="st0" d="M106.5,15.9c0.6,0.1,1.6,0.1,2.5,0.1c3.7,0,4.9-2.2,4.9-4.1c0-2.7-1.8-4.4-5.1-4.4c-0.6,0-1.6,0.1-2.4,0.2
		V15.9L106.5,15.9z M106.5,24.1c0,1,0.6,1.6,1.9,1.9v0.6c-0.6,0-2.9-0.1-3.4-0.1c-0.5,0-2.7,0.1-3.4,0.1V26c1.1-0.2,1.8-0.8,1.8-1.9
		V8.8c0-0.9-0.5-1.5-1.8-1.7V6.5c0.6,0,2.8,0.1,3.4,0.1c1,0,3.7-0.1,4.9-0.1c4.8,0,7.5,2,7.5,5.4c0,2.7-2,4.4-5,5.2
		c0,0,0.7,0.4,1.4,1.2c0.9,1,3.2,4.3,4.2,5.5c0.9,1.1,2.2,2.4,3.4,2.5v0.4c-0.6,0.1-1.6,0.2-2.4,0.2c-1.6,0-2.9-0.6-4.2-2.1
		c-1.1-1.3-3.1-4.2-4.2-5.5c-0.7-0.9-1.5-1.6-3.1-1.9c-0.3-0.1-0.6-0.1-0.9-0.1L106.5,24.1L106.5,24.1z"/>
	<path class="st0" d="M169.6,15.9c0.6,0.1,1.6,0.1,2.5,0.1c3.7,0,4.9-2.2,4.9-4.1c0-2.7-1.8-4.4-5.1-4.4c-0.6,0-1.6,0.1-2.4,0.2
		V15.9L169.6,15.9z M169.6,24.1c0,1,0.6,1.6,1.9,1.9v0.6c-0.6,0-2.9-0.1-3.4-0.1c-0.5,0-2.7,0.1-3.4,0.1V26c1.1-0.2,1.8-0.8,1.8-1.9
		V8.8c0-0.9-0.5-1.5-1.8-1.7V6.5c0.6,0,2.8,0.1,3.4,0.1c1,0,3.7-0.1,4.9-0.1c4.8,0,7.5,2,7.5,5.4c0,2.7-2,4.4-5,5.2
		c0,0,0.7,0.4,1.4,1.2c0.9,1,3.2,4.3,4.1,5.5c0.9,1.1,2.2,2.4,3.4,2.5v0.4c-0.6,0.1-1.6,0.2-2.4,0.2c-1.6,0-2.9-0.6-4.2-2.1
		c-1.1-1.3-3-4.2-4.1-5.5c-0.7-0.9-1.5-1.6-3.1-1.9c-0.3-0.1-0.6-0.1-0.9-0.1L169.6,24.1L169.6,24.1z"/>
	<path class="st0" d="M138.1,43.7h0.3c0.1,0.6,0.5,1.1,0.9,1.4c0.5,0.4,1.2,0.5,1.9,0.5c1.4,0,2.2-0.6,2.2-1.7s-1.1-1.6-2.4-2.2
		c-1-0.5-2.9-1.2-2.9-3.2c0-1.8,1.4-2.9,3.5-2.9c1.4,0,2.1,0.4,3,0.3V38h-0.4c-0.4-1.2-1.5-1.6-2.7-1.6c-1.4,0-1.9,0.8-1.9,1.6
		c0,1.1,1.3,1.8,2.4,2.4c1.4,0.6,3,1.4,3,3.2c0,1.7-1.4,2.9-3.7,2.9c-1.4,0-2.3-0.4-3.1-0.5L138.1,43.7z"/>
	<path class="st0" d="M159.9,45.9c0.5-0.1,0.8-0.4,0.8-0.9v-8c0-0.5-0.3-0.7-0.8-0.9v-0.3c0.3,0,1.4,0.1,1.6,0.1
		c0.3,0,1.5-0.1,1.7-0.1v0.3c-0.5,0.1-0.9,0.4-0.9,0.9v3.4h6V37c0-0.6-0.3-0.8-0.8-0.9v-0.3c0.3,0,1.4,0.1,1.7,0.1
		c0.3,0,1.4-0.1,1.6-0.1v0.3c-0.5,0.1-0.9,0.4-0.9,0.9v8c0,0.5,0.4,0.7,0.9,0.9v0.3c-0.2,0-1.4,0-1.6,0s-1.4,0-1.7,0v-0.3
		c0.5-0.1,0.8-0.4,0.8-0.9v-3.8h-6V45c0,0.6,0.4,0.7,0.9,0.9v0.3c-0.3,0-1.4,0-1.7,0c-0.3,0-1.4,0-1.6,0V45.9z"/>
	<path class="st0" d="M157,43.6l-0.1,2.3c-0.8-0.1-1.9,0.5-3.7,0.5c-3.8,0-5.6-2.4-5.6-5.3c0-3.2,2.2-5.5,5.5-5.5
		c1.6,0,2.6,0.6,3.6,0.5l0.1,2.3h-0.3c-0.6-1.4-1.9-2.1-3.4-2.1c-2.4,0-3.7,2.1-3.7,4.6c0,2.1,1,4.6,3.9,4.6c1.6,0,2.8-0.6,3.3-2.1
		h0.4V43.6z"/>
	<path class="st0" d="M182.3,41c0-2.4-1.1-4.7-3.5-4.7s-3.5,2.3-3.5,4.7c0,2.4,1.1,4.6,3.5,4.6S182.3,43.4,182.3,41 M173.5,41
		c0-3,2.1-5.5,5.3-5.5s5.3,2.4,5.3,5.5c0,3-2.1,5.4-5.3,5.4C175.5,46.4,173.5,44,173.5,41"/>
	<path class="st0" d="M195.3,41c0-2.4-1.1-4.7-3.5-4.7s-3.5,2.3-3.5,4.7c0,2.4,1.1,4.6,3.5,4.6S195.3,43.4,195.3,41 M186.5,41
		c0-3,2.1-5.5,5.3-5.5s5.3,2.4,5.3,5.5c0,3-2.1,5.4-5.3,5.4C188.5,46.4,186.5,44,186.5,41"/>
	<path class="st0" d="M69.2,35.8h6.5c0.2,0,0.6,0,0.7-0.1h0.3l-0.1,2.1h-0.3c-0.2-0.6-0.6-1.1-1.9-1.1h-2.7v3.7H74
		c0.3,0,0.7,0,0.9-0.1c0.5-0.1,0.7-0.4,0.8-0.8H76c0,0.3,0,1,0,1.2c0,0.2,0,1,0,1.3h-0.3c-0.1-0.4-0.4-0.7-0.8-0.9
		c-0.1-0.1-0.6-0.1-0.9-0.1h-2.2v4.2H75c1.4,0,1.7-0.6,2-1.4l0.3,0.1L77,46.1C76,46,75.4,46,74.3,46H71c-0.3,0-1.4,0.1-1.8,0.1v-0.3
		c0.6-0.1,0.9-0.4,0.9-0.9V37c0-0.5-0.3-0.8-0.9-0.9V35.8L69.2,35.8z"/>
	<path class="st0" d="M94.1,37c0-0.5-0.3-0.8-0.9-0.9v-0.3c0.4,0,1.5,0.1,1.8,0.1c0.3,0,1.4-0.1,1.8-0.1v0.3
		c-0.6,0.1-0.9,0.4-0.9,0.9v7.9c0,0.5,0.3,0.8,0.9,0.9v0.3c-0.4,0-1.4-0.1-1.8-0.1c-0.3,0-1.4,0.1-1.8,0.1v-0.3
		c0.6-0.1,0.9-0.4,0.9-0.9V37z"/>
	<path class="st0" d="M116.7,42l-1.6-3.9l-1.5,3.9H116.7z M110.1,45.9c0.6-0.1,1-0.6,1.2-1.1l3.3-8c0.1-0.4,0.3-1,0.3-1h0.9
		c0,0,0.1,0.6,0.3,1l3.5,8c0.2,0.6,0.5,0.9,1.2,1.1v0.3c-0.4,0-1.6,0-1.8,0c-0.3,0-1.4,0-1.8,0v-0.3c0.5-0.1,0.7-0.4,0.7-0.6
		c0-0.2-0.1-0.4-0.2-0.7l-0.7-1.7h-3.9l-0.6,1.7c-0.1,0.2-0.1,0.5-0.1,0.6c0,0.3,0.1,0.5,0.7,0.6v0.3c-0.4,0-1.2,0-1.4,0h-1.5
		L110.1,45.9z"/>
	<path class="st0" d="M108.8,43.6l-0.1,2.3c-0.8-0.1-1.9,0.5-3.7,0.5c-3.8,0-5.6-2.4-5.6-5.3c0-3.2,2.2-5.5,5.5-5.5
		c1.6,0,2.6,0.6,3.6,0.5l0.1,2.3h-0.3c-0.6-1.4-1.9-2.1-3.4-2.1c-2.4,0-3.7,2.1-3.7,4.6c0,2.1,1,4.6,3.9,4.6c1.6,0,2.8-0.6,3.3-2.1
		h0.4V43.6z"/>
	<path class="st0" d="M130.6,44c-0.4,0.8-0.7,1.4-2,1.4h-3.2v-8.2c0-0.6,0.4-0.8,0.9-0.9v-0.3c-0.4,0-1.5,0.1-1.8,0.1
		c-0.4,0-1.4-0.1-1.8-0.1v0.3c0.6,0.1,0.9,0.4,0.9,0.9V45c0,0.6-0.3,0.9-0.9,0.9v0.3c0.4,0,1.5-0.1,1.8-0.1l0,0l0,0h3.3
		c1.1,0,1.7,0,2.7,0.1l0.3-2.2L130.6,44z"/>
	<path class="st0" d="M207.4,44c-0.4,0.8-0.7,1.4-2,1.4h-3.2v-8.2c0-0.6,0.4-0.8,0.9-0.9v-0.3c-0.4,0-1.5,0.1-1.8,0.1
		c-0.4,0-1.4-0.1-1.8-0.1v0.3c0.6,0.1,0.9,0.4,0.9,0.9V45c0,0.6-0.3,0.9-0.9,0.9v0.3c0.4,0,1.5-0.1,1.8-0.1l0,0l0,0h3.3
		c1.1,0,1.7,0,2.7,0.1l0.3-2.2L207.4,44z"/>
	<path class="st0" d="M82.7,45.3c0.4,0.1,1,0.1,1.6,0.1c3.1,0,4.7-1.7,4.7-4.4c0-2.7-1.7-4.6-4.6-4.6c-0.6,0-1.3,0.1-1.6,0.1
		L82.7,45.3L82.7,45.3z M80.1,45.9c0.6-0.1,0.9-0.4,0.9-0.9v-8c0-0.6-0.4-0.8-0.9-0.9v-0.3c0.4,0,1.5,0.1,1.8,0.1
		c0.5,0,1.9-0.1,2.9-0.1c3.7,0,5.9,2.1,5.9,5.2c0,3-2.3,5.3-6.1,5.3c-1.1,0-2.4-0.1-2.9-0.1c-0.3,0-1.4,0.1-1.7,0.1L80.1,45.9
		L80.1,45.9z"/>
	<path class="st0" d="M65.4,44.7L64.9,37c-0.1-0.5,0.2-0.8,0.8-0.9v-0.3c-0.4,0-1.1,0-1.4,0c-0.2,0-0.7,0-1.1,0l-3.4,8l-3.4-8
		c-0.4,0-0.9,0-1.1,0c-0.2,0-1.1,0-1.4,0v0.3c0.6,0.1,0.9,0.4,0.9,0.9l-0.6,7.7c-0.1,0.6-0.4,1-1.1,1.2v0.3h1.5c0.2,0,1.1,0,1.4,0
		v-0.3c-0.7-0.2-0.9-0.6-0.9-1.1l0.4-6.8l3.5,8.2h0.6l3.6-8.2l0.4,6.8c0,0.4-0.1,0.9-0.9,1.1v0.3c0.4,0,1.6,0,1.8,0h1.8v-0.3
		C65.8,45.7,65.4,45.4,65.4,44.7"/>
	<path class="st1" d="M43.2,15.6H0.6v-2.5h42.6V15.6z M21.7,0.3H0.2L0.1,17.5c0,21.1,21.2,34.6,21.4,34.7l0.1,0.1
		c0.1,0,0.2-0.1,0.2-0.1c3.6-2.4,21.5-15.1,21.5-34.6V0.4C43.3,0.3,21.7,0.3,21.7,0.3"/>
	<path d="M7.4,2.5c1.4-0.6,3-0.1,4.6-0.3c0.4,0.1,1-0.2,1.3,0.2c0,0.4,0,0.9,0,1.4C13.4,4,13.9,3.8,14.2,4c0.1,0.1,0.3,0.1,0.4,0.4
		s0,0.4-0.1,0.6c-0.3,0.3-0.6,0.2-1.1,0.3l-0.1,0.1c0.1,0.9-0.1,1.6,0,2.4c0,0.1-0.1,0.4,0.1,0.5c0.4,0,0.8,0,1.1,0.3
		c0.1,0.2,0.1,0.4,0.1,0.7c-0.1,0.9-1.5-0.1-1.4,0.9c0,0.4,0.1,0.9-0.1,1.2c-1.6,0-3.2-0.1-4.7,0c-0.3,0.2-0.6,0.4-1,0.4
		c-0.3-0.1-0.6-0.2-0.8-0.4c-1.4-0.1-2.8-0.1-4.2-0.1c-0.4-0.4-0.1-1-0.3-1.6C2,9.6,1.6,9.8,1.3,9.6C1.1,9.6,1,9.4,1,9.3
		C1,9,1,8.7,1.2,8.5C1.4,8.3,1.7,8.3,2,8.3l0.1-0.1C2.1,7.3,2.3,6.3,2.1,5.3C2,5.1,1.7,5.3,1.5,5.2C1.2,5.1,1,5,0.9,4.8
		C0.8,4.5,0.7,4.3,1,4.1c0.3-0.4,0.9,0.1,1.1-0.3l0.1-1.4C2.5,2,3.1,2.2,3.5,2.2c0.7-0.1,1.6,0,2.3,0C6.5,2.2,7,2.2,7.4,2.5"/>
	<path class="st0" d="M21.5,41.3L21.5,41.3C21.5,41.3,21.5,41.3,21.5,41.3 M21.1,38.3c0,0,0,0.1,0,0.1
		C21.2,38.3,21.2,38.3,21.1,38.3L21.1,38.3 M10.9,32.2L10.9,32.2L10.9,32.2 M17,30.3L17,30.3L17,30.3L17,30.3 M17,30.3L17,30.3
		L17,30.3L17,30.3z M23.8,25.5L23.8,25.5C23.9,25.5,23.9,25.5,23.8,25.5L23.8,25.5 M18.2,21.6c0.1-0.1,0.1-0.1,0.1-0.1l0,0
		C18.3,21.5,18.2,21.6,18.2,21.6 M7.8,21.3c0.1,0,0.1,0,0.1,0C7.9,21.3,7.9,21.3,7.8,21.3 M10.1,21.7L10.1,21.7L10.1,21.7L10.1,21.7
		z M9.3,17.6l-0.1,0.3c0,0.1-0.1,0.3-0.3,0.3l-0.6-0.1C8.2,18,8,18,7.8,18c-0.1,0.1-0.2,0.1-0.4,0.3c0.1,0,0.1,0.1,0.1,0.1
		c0.1,0.1,0.4,0.1,0.5,0.5c0,0.3,0.1,0.5,0.3,0.6l0.1,0.1c0.1,0.1,0.1,0.1,0.1,0.2c0,0.1,0,0.1-0.1,0.1l-0.3,0.4l-0.1,0.1
		c0,0-0.1,0.4-0.2,0.5c0.1,0.1,0.1,0.2,0.2,0.2c0.3-0.1,0.5,0,0.7,0l0.4,0.1h0.1h0.1c0.1,0,0.4-0.1,0.6,0.1c0,0,0.2,0.4,0.2,0.4
		c0.1,0.1,0.1,0.2,0.1,0.4s0,0.3-0.1,0.4l-0.1,0.2c0,0.1,0,0.1-0.1,0.1c-0.4,0.6-0.9,1-1.5,1.3c0.1,0,0.1,0,0.1,0s0,0,0,0.1l0,0
		c0.1,0.1,0.3,0.1,0.5,0h0.1c0.3,0,0.5-0.1,0.8-0.2l0.9-0.2c0.1-0.1,0.2,0.1,0.3,0.1c0.1,0.3,0.4,0.6,0.5,0.6c0,0,0,0,0.1-0.1
		c0.1-0.1,0.4-0.4,0.9-0.2c0,0,0.1,0,0.1,0.1c0.3,0.2,0.4,0.5,0.4,0.7c0.1,0.1,0.1,0.4,0.2,0.4c0.1,0.1,0.1,0.1,0.1,0.1v0.1
		c0,0.3-0.3,0.4-0.4,0.5H13l-0.1,0.1l-0.6,0.1c-0.2,0-0.4,0.1-0.6,0.1c0,0,0,0.1,0.1,0.1c0.3,0.1,0.7,0.2,1.1,0.3l0.2,0.1h0.5h0.9
		c0.1,0,0.1,0.1,0.2,0.1c0.1,0.1,0,0.2-0.1,0.3l-0.1,0.2c0,0.1-0.1,0.1-0.1,0.1l-1.4,0.9c-0.1,0-0.8,0.3-0.8,0.3l-1.1,0.4h-0.1
		c-0.6,0.1-1.1-0.2-1.4-0.4c-0.2-0.2-0.4-0.4-0.7-0.4c-0.3,0-0.4,0.1-0.6,0.2c-0.1,0.1-0.1,0.1-0.1,0.3c0,0.1,0,0.1,0,0.1h0.1
		c0.1,0.1,0.4,0.1,0.4,0.5c0,0.5-0.2,0.9-0.4,1.2c-0.1,0.3-0.4,0.6-0.4,0.9V32c0,0.1,0,0.1,0.1,0.1h0.1h0.1L8.4,32
		c0.1-0.1,0.2-0.4,0.5-0.4H9c0.6,0.1,0.9,0,1.1-0.2c0.1-0.1,0.1-0.1,0.1-0.1c0.1,0,0.4,0,0.5,0.1c0.1,0.1,0.2,0.3,0.2,0.4
		c0,0,0,0.1,0,0.1c0.4-0.1,0.6-0.4,0.9-0.9l0.1-0.2c0.1-0.1,0.1-0.1,0.2-0.1l0.2-0.1c0.3-0.1,0.6-0.2,0.9,0c0.1,0.1,0.1,0.1,0.1,0.2
		c0,0.1,0,0.1,0,0.2c0,0.3-0.1,0.6-0.2,0.7c0,0-0.1,0.1-0.1,0.3c0.5-0.1,0.9-0.6,1.3-1.1l0.2-0.3c0.1-0.1,0.2-0.5,0.6-0.5h0.1
		c0.2,0.1,0.3,0,0.5-0.4l0.4-0.5c0.1-0.1,0.1-0.1,0.2-0.1h0.1c0.1,0,0.1,0,0.2,0.1c0.1,0.1,0.1,0.1,0.1,0.1V30l0,0
		c0.1,0,0.3-0.1,0.4-0.1l0.6-0.4c0.1-0.1,0.1-0.1,0.3,0l2.2,0.6c0.4,0.1,0.5,0.4,0.5,0.7c0,0.1,0,0.2,0,0.3c0,0.1,0,0.1,0,0.2
		c0,0.1,0,0.1,0.1,0.1c0.1,0.1,0.1,0.1,0.1,0.2c0,0.1,0,0.1,0,0.1c-0.1,0.2-0.3,0.4-0.9,0.4l-1.1,0.1c-0.9,0-1.7,0-2.4,0.6l-0.6,0.6
		c-0.1,0.1-0.1,0.1-0.2,0.1c-0.4,0-0.7,0.2-1.1,0.4c-0.4,0.2-0.6,0.4-1.1,0.5c-0.3,0.1-0.6,0.1-0.9,0.1s-0.4,0-0.5,0.1
		c0.3,0.4,0.8,0.5,1.3,0.6c0.1,0,0.3,0.1,0.3,0.1c0.2,0,0.6,0,0.7,0.4c0,0,0,0.1,0,0.1c0,0.3,0.1,0.4,0.2,0.4h0.1
		c0.1-0.1,0.4-0.2,0.7,0c0.1,0.1,0.5,0.5,0.5,0.5l0.6,0.6c0.1,0.1,0.1,0.2,0,0.3c-0.2,0.4-0.7,0.4-1.1,0.4h-0.2h-0.3
		c-0.4,0.1-1.1,0.2-1.5-0.4l0.1,0.1l-0.4-0.4c-0.4-0.3-0.6-0.6-1.1-0.6c-0.4,0.1-0.6,0.3-0.6,0.5l0,0l0.1,0.1l0.2,0.2
		c0.1,0.1,0.1,0.1,0.1,0.1s0,0,0,0.1s-0.1,0.1-0.1,0.2c-0.4,0.2-0.8,0.6-0.8,1c0,0.1,0,0.1,0,0.1s0,0,0,0.1c0.1,0,0.1-0.1,0.1-0.1
		c0.1-0.1,0.4-0.1,0.7,0c0.1,0.1,0.1,0.1,0.1,0.2v0.4c0,0.4,0.1,0.5,0.1,0.6c0.1,0,0.1-0.1,0.1-0.1c0.2-0.1,0.6-0.3,1.1,0
		c0.1,0,0.2,0,0.4-0.1l0.4-0.2c0.1,0,0.1,0,0.1,0c0.8,0,1.1,0.6,1.3,1.1l0,0l0,0c0.4,0.3,0.6,0.4,0.9,0.4v-0.1c0-0.1,0-0.1,0-0.3
		c0-0.1-0.1-0.2-0.1-0.4c0-0.3,0.1-0.6,0.5-0.7c0.1,0,0.7-0.1,0.7-0.1H18h0.1c0.6,0.1,1.1,0.1,1.4-0.4c0,0,0.5-0.8,0.6-0.9
		c0-0.1,0.1-0.5,0.1-0.5c0-0.1,0.1-0.2,0.2-0.2c0.2-0.1,0.5,0,0.6,0.1c0,0,0.1,0,0.1,0.1C21,37.8,21,37.5,21,37c0-0.2,0-0.4,0.1-0.6
		c0.1-0.6,0.4-1,0.6-1.3c0.1-0.1,0.2-0.1,0.4-0.1l0.1,0.1c0.1,0.1,0.1,0.1,0.2,0.2l0.1,0.7c0.1,0.4,0.1,0.9,0.4,1.3
		c0,0.1,0.1,0.1,0,0.1l-0.3,1.1l-0.2,0.9c-0.2,0.8-0.7,1.4-1.4,1.8v0.1c0,0,0.1,0,0.3,0c0,0,0.2,0,0.3,0c0.8-0.1,1.6-0.5,2.1-1.1
		c0.1-0.1,0.2-0.1,0.3-0.1c0.1,0.1,0.3,0,0.5-0.1c0.2-0.1,0.6-0.4,1.1-0.1c0.2,0.1,0.4,0.1,0.7,0.1c0.4,0,1.1-0.1,1.3,0.7v0.1v0.4
		c0.1,0.4,0.1,1.1-0.6,1.3c-0.1,0-0.1,0-0.1,0l-0.8-0.3c-0.6-0.3-0.9-0.4-1.2,0c-0.1,0.1-0.1,0.2-0.1,0.3c0.1,0.2,0.4,0.6,0,1
		l0.1-0.1l-0.1,0.1c-0.2,0.4-0.4,0.6-0.2,0.9c0,0,0.1,0.1,0.3,0c0.4-0.1,0.6,0,0.9,0.1l0.4,0.1c0.1,0,0.1,0.1,0.1,0.1l0.1,0.1
		c0.3,0.2,0.5,0.4,0.8,0.4v-0.1l0.1-0.4c0.1-0.1,0.5-0.3,0.5-0.3c0.4-0.1,0.4-0.1,0.4-0.3c0.1-0.5,0.4-1,0.9-1.3
		c0.1,0,0.1-0.1,0.2-0.1c0.1,0,0.5-0.1,0.7-0.3l-0.1-0.1l-0.1-0.1c-0.1-0.1-0.1-0.1-0.1-0.1c0-0.1,0-0.1,0-0.2
		c0-0.4,0.2-0.6,0.4-0.9c0.1-0.2,0.2-0.4,0.2-0.6c0-0.1,0-0.1-0.1-0.3c0-0.1-0.1-0.1-0.1-0.1l-0.1-0.5c-0.1-0.4-0.1-0.6-0.3-0.8
		L29,38.5l-0.6-0.3c-0.1-0.1-0.1-0.1-0.1-0.3c0-0.3,0.1-0.4,0.5-0.5h0.1c0.4-0.1,0.7,0,1,0.1c0.3,0.1,0.4,0.1,0.4,0.1
		c-0.1-0.2-0.3-0.4-0.4-0.6c-0.4-0.2-0.8-0.4-1.2-0.4c-0.7-0.1-1.4-0.4-1.9-1c-0.1-0.1-0.1-0.1-0.1-0.2c0-0.1,0-0.1,0.1-0.2l0.1-0.1
		c0.1-0.1,0.2-0.1,0.3-0.1c0.9,0.2,1.7,0,2.3-0.5c0.4-0.4,0.8-1,1.4-1.2c0.5-0.4,0.6-1,0.6-1.8c0-0.4,0.2-0.8,0.5-1l0.6-0.3
		c0.2-0.1,0.3-0.1,0.3-0.1c-0.4-0.1-0.8-0.4-1.1-0.3c-0.1,0-0.1,0-0.2-0.1c-0.2-0.1-0.2-0.2-0.3-0.4v-0.1c0-0.2,0.1-0.4,0.3-0.4
		l0.1-0.1l0.1-0.1l0.6-0.4c0.9-0.5,1.4-0.8,1.4-1.6l0,0c0-0.1,0-0.1,0-0.1c-0.1,0.1-0.2,0.1-0.4,0.2l-0.4,0.3
		c-0.4,0.2-0.9,0.4-1.4,0.4c-0.5,0.1-0.9,0.2-1.3,0.4c-0.1,0-0.1,0.1-0.1,0.1c-0.1,0-0.4-0.1-0.4-0.3c0-0.1,0-0.1,0-0.2
		c0-0.1,0.1-0.3,0.1-0.4c0.1-0.2,0.4-0.4,0.6-0.4c0.3-0.1,0.4-0.2,0.5-0.4l0.1-0.2c0.1-0.4,0.3-0.9,0.8-1.1c0.1,0,0.4-0.2,0.4-0.2
		c0.1,0,0.1-0.1,0.1-0.1s0,0-0.1-0.1c-0.7-0.2-1.5,0.4-1.9,0.7l-0.1,0.1l-0.3,0.1c-0.5,0.2-1,0.4-1.4,0.8c0,0.1-0.1,0.1-0.1,0.1
		c-0.1,0.1-0.3,0-0.4-0.1c-0.1-0.1-0.2-0.2-0.2-0.4c-0.1-1.1,0.8-2,1.6-2.7l0.2-0.1l0.1-0.1l0.4-0.2c0.4-0.2,0.8-0.5,1.4-0.3
		c0.4,0.2,0.8,0.4,1.1,0.3c0.2-0.1,0.4-0.3,0.6-0.6c0.1-0.2,0.4-0.5,0.6-0.7c0.4-0.1,0.6,0,0.8,0c0.1,0,0.3,0.1,0.3,0.1l0.1-0.1
		v-0.1c0-0.2-0.1-0.4-0.4-0.7l-0.3-0.4c0-0.1-0.1-0.1-0.1-0.1c0-0.1,0-0.1,0-0.1c0.1-0.2,0.1-0.4,0.1-0.7c0-0.6-0.2-1.1-0.6-1.4
		c-0.1-0.1-0.4-0.2-0.7-0.2c0,0.1,0.1,0.1,0.1,0.1l0.3,0.6c0,0.1,0,0.1,0,0.2c0,1.3-1.1,1.9-2,2.3l-0.8,0.4
		c-1.8,0.9-4.2,2.4-4.4,4.8c0,1.2,0.6,2.4,1.5,3.4c0,0,0,0.1,0.1,0.1l0.4,0.5c0.4,0.6,0.8,1.2,0.8,1.9c0,0.2,0,0.4-0.1,0.6
		c-0.3,0.7-1.1,0.7-1.4,0.7c-1.8-0.1-2.8-1.9-3.5-3.2L24,30.1l-0.1-0.3c-0.2-0.4-0.4-0.9-0.4-1.4c0-0.1,0-0.2,0.1-0.3
		c0.1-0.1,0.3-0.3,0.6-0.1c0.1,0,0.4,0.6,0.4,0.6c0.1,0.1,0.1,0.1,0.1,0.2c0-0.1,0.1-0.1,0.1-0.3c0-0.3-0.1-0.6-0.3-1l-0.1-0.1
		c-0.1-0.1-0.3-0.4-0.5-0.5c-0.3-0.2-0.6-0.5-0.7-0.9c0,0,0-0.1,0-0.1c0,0,0,0,0-0.1c0-0.4,0.4-0.5,0.5-0.6h0.1
		c-0.1-0.4-0.2-0.9-0.2-1.4c0-0.2,0-0.5,0.1-0.7l0,0l0,0l0,0l0.4-0.4c0.1-0.1,0.1-0.1,0.1-0.1c-0.1-0.5-0.1-1.1-0.1-1.6
		c0-0.2,0-0.4,0-0.6c0-0.1,0.1-0.5,0.1-0.5c0.1-0.2,0.1-0.4,0.1-0.5c0-0.1,0-0.1,0-0.1c-0.3-0.1-0.4-0.5-0.4-0.6v-0.1l0,0
		c0.1,0,0.1,0,0.1,0c-0.7,0-1.4-0.3-1.9-0.6l-0.6-0.3c-0.1-0.1-0.3,0-0.5,0.1l-0.4,0.1L20.1,18c-0.4,0.1-0.7,0.1-0.9,0.4
		C19,18.5,19,18.7,19,19v0.2v0.1c-0.1,0.2-0.2,0.3-0.3,0.3c-0.2,0.1-0.4,0-0.5-0.1h-0.1c-0.6-0.3-0.8-0.9-0.6-1.4
		c0-0.1-0.1-0.2-0.1-0.2c-0.1-0.1-0.4-0.1-0.6-0.1c-0.1,0.1-0.3,0.2-0.4,0.6c0,0-0.1,0.1-0.1,0.1v0.1c0,0.2,0.1,0.4,0.1,0.5
		c0.2,0.2,0.6,0.4,1,0.6l0.9,0.6c0.1,0.1,0.1,0.1,0.1,0.1c0,0.1,0.1,0.2,0.1,0.3c0,0.4-0.1,0.6-0.4,0.8l0,0c0.1,0.1,0.3,0.2,0.3,0.5
		c0,0,0,0.1,0,0.1c0,0.1-0.1,0.2-0.2,0.2c-0.6,0.1-1.1,0-1.5-0.3l-0.3-0.4c-0.1-0.1-0.1-0.2-0.2-0.2c-0.1,0.1-0.1,0.1-0.1,0.2
		L15.9,22c0-0.1,0,0.2,0,0.2c0,0.2-0.1,0.5-0.3,0.7C15.6,23,15.5,23,15.4,23h-0.3c-1.1-0.4-2.2-0.9-3.4-1.9
		c-0.5-0.4-0.9-0.9-1.2-1.4l-0.3-0.4l-0.1-0.1L10.1,19C9.9,18.2,9.8,17.8,9.3,17.6C9.5,17.5,9.4,17.5,9.3,17.6"/>
	<path class="st2" d="M0.4,17.5c0-5,0-10.6,0-17.1h43c0,0,0,2.6,0,17.3c0,21.7-21.7,34.5-21.7,34.5S0.4,38.8,0.4,17.5z"/>
	<path d="M30.4,42.6L30.4,42.6L30.4,42.6L30.4,42.6L30.4,42.6L30.4,42.6L30.4,42.6L30.4,42.6L30.4,42.6L30.4,42.6L30.4,42.6
		L30.4,42.6L30.4,42.6L30.4,42.6c-0.1-0.1-0.3-0.4-0.4-0.4c-0.1-0.8,1-1.3,0.4-2.1c-0.1-0.5,0-1.1-0.5-1.4c-0.4-0.3-0.8-0.4-1.1-0.6
		c0-0.2,0.3-0.1,0.4-0.2c0.6-0.1,1.1,0.6,1.6,0c0.1-0.4-0.4-0.8-0.6-1.1c-0.9-0.6-2.4-0.4-3-1.4l0.1-0.1c0.9,0.2,1.9,0,2.6-0.6
		c0.4-0.5,0.8-1,1.4-1.1c0.6-0.5,0.7-1.3,0.7-2.1c0-0.3,0.1-0.6,0.4-0.8c0.4-0.3,1.2-0.2,1.1-0.9c-0.5-0.3-1-0.5-1.6-0.4
		c-0.3-0.1,0.1-0.4,0.1-0.4c0.9-0.6,2.3-0.9,2.2-2.3c-0.1-0.1-0.1-0.4-0.3-0.4c-0.4,0.1-0.6,0.4-1,0.6c-0.9,0.5-1.9,0.4-2.7,0.9
		c-0.1,0-0.1-0.2-0.1-0.3c0.3-0.4,0.9-0.4,1.1-1c0.1-0.4,0.3-1,0.7-1.1c0.3-0.2,0.7-0.2,0.9-0.6c0-0.2-0.3-0.3-0.4-0.4
		c-0.8-0.3-1.6,0.2-2.2,0.8c-0.6,0.3-1.3,0.5-1.7,0.9c-0.1,0-0.2,0-0.2-0.1c-0.1-1.1,0.9-1.9,1.6-2.6c0.5-0.1,1-0.8,1.6-0.5
		c0.4,0.2,0.9,0.4,1.4,0.3c0.6-0.2,0.8-0.9,1.3-1.3c0.4-0.1,1,0.5,1.3-0.1c0.1-0.6-0.4-1-0.6-1.4c0.4-0.9,0.1-1.9-0.6-2.5
		c-0.4-0.2-0.8-0.4-1.1-0.2c-0.3,0.4,0.3,0.6,0.3,1.1c0.1,1.6-1.6,1.9-2.7,2.7c-1.9,1-4.4,2.5-4.5,5c0,1.4,0.6,2.7,1.6,3.7
		c0.5,0.9,1.3,1.7,1,2.8c-0.2,0.4-0.7,0.5-1.1,0.5c-1.7-0.1-2.6-2-3.3-3.3c-0.2-0.5-0.5-1-0.6-1.6c0.1-0.1,0.1-0.1,0.3,0
		c0.3,0.3,0.3,0.9,0.8,0.9c0.4-0.6,0.1-1.3-0.1-1.9c-0.3-0.5-0.9-0.8-1.2-1.4c0-0.4,0.6-0.1,0.6-0.6c-0.2-0.7-0.3-1.5-0.1-2.2
		c0.1-0.3,0.6-0.3,0.6-0.6c-0.2-0.7-0.2-1.4-0.1-2.2c0.1-0.4,0.4-0.9,0.2-1.4c-0.5-0.1-0.1-0.8-0.6-0.9c-0.9,0-1.6-0.5-2.5-0.8
		c-0.4-0.1-0.7,0.1-1.1,0.2c-0.5,0.1-1.1,0.1-1.4,0.5c-0.3,0.3-0.2,0.6-0.2,1.1c-0.1,0.3-0.3,0-0.4,0C18,19,17.9,18.6,18,18.2
		c0.1-0.2,0-0.4-0.2-0.5c-0.3-0.1-0.6-0.3-0.9-0.1c-0.4,0.1-0.5,0.6-0.6,0.9c0,0.3,0,0.6,0.1,0.9c0.6,0.6,1.4,0.8,1.9,1.3
		c0.1,0.4-0.1,0.6-0.4,0.9c0,0.3,0.4,0.3,0.4,0.6c-0.4,0.1-0.9,0-1.2-0.3c-0.2-0.2-0.3-0.6-0.6-0.6c-0.4,0-0.4,0.4-0.5,0.6
		c-0.1,0.3,0,0.6-0.3,0.9h-0.3c-1.1-0.4-2.2-1-3.2-1.8c-0.6-0.4-1-1.1-1.4-1.7c-0.2-0.7-0.4-1.7-1.2-1.9c-0.2,0-0.4,0.1-0.5,0.3
		l-0.1,0.3c-0.4,0-0.9-0.3-1.4-0.1c-0.2,0.1-0.4,0.3-0.6,0.5c0,0.5,0.6,0.3,0.6,0.7c0,0.4,0.3,0.6,0.4,0.9c-0.1,0.2-0.4,0.3-0.4,0.5
		L7.3,21c0.1,0.2,0.3,0.5,0.5,0.5c0.4-0.1,0.7,0.1,1.1,0.1c0.3,0,0.6-0.2,0.7,0.2c0.1,0.4,0,0.6,0,0.9c-0.4,0.5-0.9,0.9-1.4,1.1
		c-0.1,0.1-0.1,0.4-0.1,0.5c0.2,0.3,0.6,0.1,0.9,0.1c0.6,0,1.1-0.4,1.6-0.4c0.1,0.3,0.4,0.6,0.6,0.8c0.4,0.1,0.6-0.5,1-0.4
		c0.4,0.3,0.3,0.8,0.6,1.1c0,0.2-0.1,0.2-0.3,0.3c-0.5,0.1-1.1,0-1.5,0.4c-0.1,0.2,0.1,0.4,0.3,0.5c0.4,0.2,0.9,0.3,1.4,0.4
		c0.4,0.1,0.9-0.1,1.4,0L14,27.4l-1.4,0.9c-0.6,0.3-1.3,0.4-1.9,0.7c-0.9,0.2-1.2-0.9-2-0.8c-0.4,0-0.6,0.1-0.8,0.3
		c-0.2,0.2-0.2,0.5-0.1,0.8c0.1,0.3,0.5,0.1,0.5,0.4c0,0.8-0.7,1.4-0.8,2.2c0,0.2,0,0.4,0.3,0.5c0.1,0.1,0.4,0,0.5-0.1
		c0.1-0.1,0.1-0.4,0.4-0.5c0.5,0.1,1,0.1,1.3-0.3c0.1,0,0.4,0.1,0.4,0.3c0,0.2,0,0.4,0.2,0.5c0.7,0,1.1-0.7,1.4-1.2
		c0.3-0.1,0.6-0.3,0.9-0.1c0.1,0.5-0.3,0.8-0.4,1.3c0,0.1,0.1,0.2,0.3,0.3c0.9-0.1,1.3-0.9,1.8-1.5c0.1-0.1,0.1-0.4,0.4-0.4
		c0.6,0.2,0.8-0.6,1.2-0.9h0.1c0.1,0.2-0.1,0.4,0,0.5c0.3,0.3,0.6,0,0.9-0.1l0.6-0.4c0.7,0.2,1.4,0.4,2.2,0.6c0.6,0.2,0,0.9,0.4,1.2
		c-0.1,0.2-0.4,0.3-0.6,0.3c-1.2,0.1-2.7-0.1-3.7,0.8l-0.6,0.6c-0.9,0-1.4,0.8-2.2,0.9c-0.6,0.4-1.4-0.1-1.8,0.5
		c0.3,0.6,1,0.8,1.6,0.9c0.3,0.1,0.6,0,0.8,0.3c0,0.3,0.1,0.6,0.4,0.7c0.3,0.1,0.4-0.3,0.6-0.1c0.3,0.4,0.8,0.6,1,1
		c-0.2,0.4-0.6,0.1-1,0.1h-0.1c-0.5,0.1-1.1,0.3-1.6-0.1c-0.5-0.4-0.9-1-1.7-1c-0.4,0.1-0.9,0.3-0.9,0.8c-0.1,0.3,0.2,0.4,0.4,0.6
		c-0.5,0.4-1.1,0.9-0.9,1.6c0.1,0.1,0.1,0.3,0.3,0.3c0.3,0,0.4-0.2,0.7-0.1c0.1,0.4-0.1,1.1,0.4,1.3c0.4-0.1,0.6-0.5,1.1-0.1
		c0.4,0.2,0.8-0.2,1.1-0.3c0.6,0,0.8,0.6,1,1c0.4,0.3,0.9,0.7,1.4,0.4c0.4-0.5-0.3-1.1,0.4-1.4c0.4-0.1,0.7,0,1.1-0.1
		c0.6,0.1,1.4,0.1,1.7-0.6l0.6-0.9l0.1-0.6c0.4-0.1,0.9,0.5,1.1-0.1C21,38,21,37.4,21.1,36.8c0.1-0.4,0.3-0.8,0.6-1.1l0.1,0.1
		c0.1,0.7,0.2,1.4,0.5,2.1c-0.1,0.6-0.4,1.2-0.5,1.9c-0.1,0.6-0.6,1.2-1.3,1.5c-0.1,0.1-0.3,0.3-0.1,0.5c0.1,0.3,0.6,0.1,0.9,0.2
		c0.9-0.1,1.7-0.5,2.3-1.1c0.6,0.1,0.9-0.6,1.5-0.3c0.6,0.4,1.6-0.4,1.9,0.6c-0.1,0.4,0.4,1.3-0.4,1.4c-0.7-0.1-1.6-1.1-2.3-0.2
		c-0.1,0.1-0.3,0.4-0.1,0.6c0.1,0.2,0.3,0.4,0.1,0.6c-0.2,0.4-0.5,0.8-0.3,1.1c0.1,0.3,0.4,0.3,0.6,0.2c0.4-0.1,0.8,0.2,1.2,0.2
		c0.4,0.3,0.7,0.6,1.2,0.6c0.2-0.1,0.1-0.4,0.3-0.5c0.3-0.3,0.9-0.2,0.9-0.8c0.1-0.4,0.4-0.8,0.8-1C29.4,43.2,30.1,43,30.4,42.6"/>
	<path class="st3" d="M30.4,42.6L30.4,42.6L30.4,42.6L30.4,42.6L30.4,42.6L30.4,42.6L30.4,42.6L30.4,42.6L30.4,42.6L30.4,42.6
		L30.4,42.6L30.4,42.6L30.4,42.6L30.4,42.6c-0.1-0.1-0.3-0.4-0.4-0.4c-0.1-0.8,1-1.3,0.4-2.1c-0.1-0.5,0-1.1-0.5-1.4
		c-0.4-0.3-0.8-0.4-1.1-0.6c0-0.2,0.3-0.1,0.4-0.2c0.6-0.1,1.1,0.6,1.6,0c0.1-0.4-0.4-0.8-0.6-1.1c-0.9-0.6-2.4-0.4-3-1.4l0.1-0.1
		c0.9,0.2,1.9,0,2.6-0.6c0.4-0.5,0.8-1,1.4-1.1c0.6-0.5,0.7-1.3,0.7-2.1c0-0.3,0.1-0.6,0.4-0.8c0.4-0.3,1.2-0.2,1.1-0.9
		c-0.5-0.3-1-0.5-1.6-0.4c-0.3-0.1,0.1-0.4,0.1-0.4c0.9-0.6,2.3-0.9,2.2-2.3c-0.1-0.1-0.1-0.4-0.3-0.4c-0.4,0.1-0.6,0.4-1,0.6
		c-0.9,0.5-1.9,0.4-2.7,0.9c-0.1,0-0.1-0.2-0.1-0.3c0.3-0.4,0.9-0.4,1.1-1c0.1-0.4,0.3-1,0.7-1.1c0.3-0.2,0.7-0.2,0.9-0.6
		c0-0.2-0.3-0.3-0.4-0.4c-0.8-0.3-1.6,0.2-2.2,0.8c-0.6,0.3-1.3,0.5-1.7,0.9c-0.1,0-0.2,0-0.2-0.1c-0.1-1.1,0.9-1.9,1.6-2.6
		c0.5-0.1,1-0.8,1.6-0.5c0.4,0.2,0.9,0.4,1.4,0.3c0.6-0.2,0.8-0.9,1.3-1.3c0.4-0.1,1,0.5,1.3-0.1c0.1-0.6-0.4-1-0.6-1.4
		c0.4-0.9,0.1-1.9-0.6-2.5c-0.4-0.2-0.8-0.4-1.1-0.2c-0.3,0.4,0.3,0.6,0.3,1.1c0.1,1.6-1.6,1.9-2.7,2.7c-1.9,1-4.4,2.5-4.5,5
		c0,1.4,0.6,2.7,1.6,3.7c0.5,0.9,1.3,1.7,1,2.8c-0.2,0.4-0.7,0.5-1.1,0.5c-1.7-0.1-2.6-2-3.3-3.3c-0.2-0.5-0.5-1-0.6-1.6
		c0.1-0.1,0.1-0.1,0.3,0c0.3,0.3,0.3,0.9,0.8,0.9c0.4-0.6,0.1-1.3-0.1-1.9c-0.3-0.5-0.9-0.8-1.2-1.4c0-0.4,0.6-0.1,0.6-0.6
		c-0.2-0.7-0.3-1.5-0.1-2.2c0.1-0.3,0.6-0.3,0.6-0.6c-0.2-0.7-0.2-1.4-0.1-2.2c0.1-0.4,0.4-0.9,0.2-1.4c-0.5-0.1-0.1-0.8-0.6-0.9
		c-0.9,0-1.6-0.5-2.5-0.8c-0.4-0.1-0.7,0.1-1.1,0.2c-0.5,0.1-1.1,0.1-1.4,0.5c-0.3,0.3-0.2,0.6-0.2,1.1c-0.1,0.3-0.3,0-0.4,0
		C18,19,17.9,18.6,18,18.2c0.1-0.2,0-0.4-0.2-0.5c-0.3-0.1-0.6-0.3-0.9-0.1c-0.4,0.1-0.5,0.6-0.6,0.9c0,0.3,0,0.6,0.1,0.9
		c0.6,0.6,1.4,0.8,1.9,1.3c0.1,0.4-0.1,0.6-0.4,0.9c0,0.3,0.4,0.3,0.4,0.6c-0.4,0.1-0.9,0-1.2-0.3c-0.2-0.2-0.3-0.6-0.6-0.6
		c-0.4,0-0.4,0.4-0.5,0.6c-0.1,0.3,0,0.6-0.3,0.9h-0.3c-1.1-0.4-2.2-1-3.2-1.8c-0.6-0.4-1-1.1-1.4-1.7c-0.2-0.7-0.4-1.7-1.2-1.9
		c-0.2,0-0.4,0.1-0.5,0.3l-0.1,0.3c-0.4,0-0.9-0.3-1.4-0.1c-0.2,0.1-0.4,0.3-0.6,0.5c0,0.5,0.6,0.3,0.6,0.7c0,0.4,0.3,0.6,0.4,0.9
		c-0.1,0.2-0.4,0.3-0.4,0.5L7.3,21c0.1,0.2,0.3,0.5,0.5,0.5c0.4-0.1,0.7,0.1,1.1,0.1c0.3,0,0.6-0.2,0.7,0.2c0.1,0.4,0,0.6,0,0.9
		c-0.4,0.5-0.9,0.9-1.4,1.1c-0.1,0.1-0.1,0.4-0.1,0.5c0.2,0.3,0.6,0.1,0.9,0.1c0.6,0,1.1-0.4,1.6-0.4c0.1,0.3,0.4,0.6,0.6,0.8
		c0.4,0.1,0.6-0.5,1-0.4c0.4,0.3,0.3,0.8,0.6,1.1c0,0.2-0.1,0.2-0.3,0.3c-0.5,0.1-1.1,0-1.5,0.4c-0.1,0.2,0.1,0.4,0.3,0.5
		c0.4,0.2,0.9,0.3,1.4,0.4c0.4,0.1,0.9-0.1,1.4,0L14,27.4l-1.4,0.9c-0.6,0.3-1.3,0.4-1.9,0.7c-0.9,0.2-1.2-0.9-2-0.8
		c-0.4,0-0.6,0.1-0.8,0.3c-0.2,0.2-0.2,0.5-0.1,0.8c0.1,0.3,0.5,0.1,0.5,0.4c0,0.8-0.7,1.4-0.8,2.2c0,0.2,0,0.4,0.3,0.5
		c0.1,0.1,0.4,0,0.5-0.1c0.1-0.1,0.1-0.4,0.4-0.5c0.5,0.1,1,0.1,1.3-0.3c0.1,0,0.4,0.1,0.4,0.3c0,0.2,0,0.4,0.2,0.5
		c0.7,0,1.1-0.7,1.4-1.2c0.3-0.1,0.6-0.3,0.9-0.1c0.1,0.5-0.3,0.8-0.4,1.3c0,0.1,0.1,0.2,0.3,0.3c0.9-0.1,1.3-0.9,1.8-1.5
		c0.1-0.1,0.1-0.4,0.4-0.4c0.6,0.2,0.8-0.6,1.2-0.9h0.1c0.1,0.2-0.1,0.4,0,0.5c0.3,0.3,0.6,0,0.9-0.1l0.6-0.4
		c0.7,0.2,1.4,0.4,2.2,0.6c0.6,0.2,0,0.9,0.4,1.2c-0.1,0.2-0.4,0.3-0.6,0.3c-1.2,0.1-2.7-0.1-3.7,0.8l-0.6,0.6
		c-0.9,0-1.4,0.8-2.2,0.9c-0.6,0.4-1.4-0.1-1.8,0.5c0.3,0.6,1,0.8,1.6,0.9c0.3,0.1,0.6,0,0.8,0.3c0,0.3,0.1,0.6,0.4,0.7
		c0.3,0.1,0.4-0.3,0.6-0.1c0.3,0.4,0.8,0.6,1,1c-0.2,0.4-0.6,0.1-1,0.1h-0.1c-0.5,0.1-1.1,0.3-1.6-0.1c-0.5-0.4-0.9-1-1.7-1
		c-0.4,0.1-0.9,0.3-0.9,0.8c-0.1,0.3,0.2,0.4,0.4,0.6c-0.5,0.4-1.1,0.9-0.9,1.6c0.1,0.1,0.1,0.3,0.3,0.3c0.3,0,0.4-0.2,0.7-0.1
		c0.1,0.4-0.1,1.1,0.4,1.3c0.4-0.1,0.6-0.5,1.1-0.1c0.4,0.2,0.8-0.2,1.1-0.3c0.6,0,0.8,0.6,1,1c0.4,0.3,0.9,0.7,1.4,0.4
		c0.4-0.5-0.3-1.1,0.4-1.4c0.4-0.1,0.7,0,1.1-0.1c0.6,0.1,1.4,0.1,1.7-0.6l0.6-0.9l0.1-0.6c0.4-0.1,0.9,0.5,1.1-0.1
		C21,38,21,37.4,21.1,36.8c0.1-0.4,0.3-0.8,0.6-1.1l0.1,0.1c0.1,0.7,0.2,1.4,0.5,2.1c-0.1,0.6-0.4,1.2-0.5,1.9
		c-0.1,0.6-0.6,1.2-1.3,1.5c-0.1,0.1-0.3,0.3-0.1,0.5c0.1,0.3,0.6,0.1,0.9,0.2c0.9-0.1,1.7-0.5,2.3-1.1c0.6,0.1,0.9-0.6,1.5-0.3
		c0.6,0.4,1.6-0.4,1.9,0.6c-0.1,0.4,0.4,1.3-0.4,1.4c-0.7-0.1-1.6-1.1-2.3-0.2c-0.1,0.1-0.3,0.4-0.1,0.6c0.1,0.2,0.3,0.4,0.1,0.6
		c-0.2,0.4-0.5,0.8-0.3,1.1c0.1,0.3,0.4,0.3,0.6,0.2c0.4-0.1,0.8,0.2,1.2,0.2c0.4,0.3,0.7,0.6,1.2,0.6c0.2-0.1,0.1-0.4,0.3-0.5
		c0.3-0.3,0.9-0.2,0.9-0.8c0.1-0.4,0.4-0.8,0.8-1C29.4,43.2,30.1,43,30.4,42.6z"/>
	<path class="st0" d="M17.5,18c-0.1,0.4-0.1,0.7,0.1,1c0.6,0.6,1.5,0.9,1.9,1.6h-0.2c-0.7-0.4-1.4-1-2.1-1.3
		c-0.3-0.2-0.5-0.5-0.4-0.9c0.1-0.3,0.1-0.5,0.4-0.6C17.4,17.7,17.5,17.8,17.5,18"/>
	<path class="st0" d="M23.6,18.7c0.1,0.1,0,0.5,0.4,0.6c0.1,0,0.1,0.1,0.1,0.1c0,0.3-0.1,0.6-0.1,0.9c-0.1,0.2-0.4,0.3-0.4,0.6
		c0,0.1,0.3,0.3,0.3,0.4v1.1c-0.7,0.2-0.4,1.1-0.4,1.6c-0.1,0.4,0,0.7,0,1.1c-0.1,0.1-0.5,0.1-0.6,0.3c0,0.4,0.2,0.8,0.4,1.1
		c0.3,0.4,0.8,0.4,0.8,0.9c-0.4,0-0.7-0.2-1.1-0.4c-0.5-0.3-0.9-0.9-1.2-1.4c-0.1-0.1-0.2-0.1-0.3,0c-0.1,0.4-0.1,0.8-0.4,1.1
		c-0.4-0.2-0.4-1.1-0.9-0.9c-0.2,1.2-1,2.2-1.7,3.2c-0.1,0.1-0.2,0.3-0.4,0.3c0.4-0.9,0.6-2.1,0.3-3.1c-0.1-0.2-0.3-0.1-0.4-0.1
		c-0.1,0.1-0.3,0.4-0.5,0.3c-0.2-0.3,0.2-0.8-0.3-1c-0.4,0.1-0.6,0.4-0.9,0.6c-0.9,0.5-1.9,0.7-2.9,0.7c-0.2,0-0.4-0.1-0.5-0.1
		c0.3-0.3,0.6-0.3,0.9-0.5c1.1-0.7,1.9-2,2.9-2.9c-0.1-0.4-0.4-0.9-0.1-1.3c0.3,0,0.4,0.4,0.6,0.4c0.4,0.2,0.9,0.4,1.4,0.1
		c0.4-0.1,0.6-0.4,0.7-0.8c0-0.1-0.1-0.3-0.2-0.3c-0.1,0-0.3,0-0.3-0.1c0-0.2,0.1-0.4,0.3-0.4c0.5,0,0.9,1,1.3,0.2
		c0.2-0.6-0.4-1.1-0.9-1.6c-0.1-0.1-0.2-0.3-0.1-0.5c0.4-0.2-0.1-0.5,0.2-0.8c0.5-0.4,1.2-0.1,1.7-0.5
		C22.1,17.8,22.8,18.5,23.6,18.7"/>
	<path class="st0" d="M10.1,18.4c0,0.1,0.1,0.3,0,0.4c-0.1,0.1-0.3,0-0.4-0.1c-0.1-0.1-0.3-0.4-0.2-0.5
		C9.6,17.6,10.1,18.2,10.1,18.4"/>
	<path class="st0" d="M9.7,19.2c0.8,0.4,1.3,1.1,1.9,1.8c1.2,1,2.5,1.9,3.9,2.3c0.1,0.2-0.1,0.4-0.3,0.6c-0.5,0.5-0.9,1.1-1.4,1.6
		c-0.1,0-0.2,0-0.3,0c-0.5-0.5-0.4-1.4-1.3-1.5c-0.3,0-0.5,0.4-0.8,0.1c-0.3-0.2,0.1-0.7-0.4-0.9c-0.5,0.2-0.9,0.7-1.4,0.6
		c0.4-0.6,1-1.3,0.6-2.1c-0.1-0.4-0.3-0.8-0.6-0.9c-0.4,0-0.5,0.4-0.9,0.2c-0.1-0.3-0.8-0.1-0.5-0.6c0.2-0.4,1.1-0.4,0.7-0.9
		c-0.2-0.3-0.8-0.1-0.8-0.6c0.1-0.3-0.1-0.6,0-0.8C8.9,18.2,9.3,18.8,9.7,19.2"/>
	<path class="st0" d="M34.5,19.6c0.1,0.4-0.4,0.7-0.2,1.1c0.1,0.2,0.5,0.3,0.4,0.5c-1.1,0-1.3,1.4-2.4,1.4c-0.4-0.1-0.8-0.6-1.3-0.4
		c-1.4,0.6-2.9,1.6-3.2,3.2c-0.1,0.6-0.1,1.3,0.4,1.8c0.1,0.1,0.3,0.1,0.4,0c0.3-0.5,0.5-1.1,1.1-1.3c0.4-0.1,0.8-0.3,1.1-0.5
		c0.1,0,0.1-0.1,0.1,0.1c-0.1,0.5-0.4,1.1-0.9,1.2c-0.4,0.4-0.8,0.7-0.8,1.2c0,0.3-0.1,0.6,0.1,0.8c0.2,0.1,0.4-0.1,0.6-0.1
		c0.7-0.9,1.8-1,2.9-1.1c0.1,0.1-0.1,0.3-0.2,0.3c-0.9,0.3-1.8,1.1-2.1,2c0,0.1,0.1,0.3,0.2,0.3c0.4-0.1,0.8-0.4,1.3-0.3
		c0.1,0.3-0.4,0.3-0.5,0.6c-0.9,0.8,0,2.4-1.4,2.7c-0.4,0.1-0.4,0.6-0.6,0.9c-0.5,0.6-1.3,0.8-2.1,0.7c-0.6,0.1-1.1-0.8-1.5-0.2
		c0.1,0.6,0.5,0.9,0.8,1.4c0.7,0.6,1.7,0.7,2.6,1c0.1,0,0.2,0.1,0.3,0.2c0,0.2-0.3,0.1-0.4,0.1c-0.6,0.1-1.2,0.1-1.8-0.1
		c-0.1,0-0.1,0.1-0.2,0.1c0.1,0.6,0.8,0.9,1.2,1.1c0.4,0.2,1,0.1,1.1,0.6v0.6c0.2,0.3,0.3,0.7,0.2,1.1c-0.4,0.4-0.6,1-0.4,1.6
		c-0.1,0.1-0.4,0-0.6,0.1c-0.2,0.4-0.7,0.5-0.9,0.9c0,0.4-0.2,0.6-0.6,0.7c-0.3,0-0.5,0.1-0.7,0.1c-0.1-0.2,0.1-0.5-0.2-0.6
		c-0.4-0.1-0.5,0.5-0.9,0.3c-0.2-0.1-0.4-0.2-0.5-0.4c0-0.3,0.2-0.4,0.4-0.4c0.9-0.1,2.2-0.3,2.4-1.3c0.1-0.5-0.1-0.9-0.1-1.3
		c-0.1-0.5-0.6-0.9-1.2-0.9c-0.5-0.1-1.1,0.1-1.4-0.3c-0.1-0.1-0.3-0.2-0.5-0.1c-0.1,0-0.2,0.2-0.4,0.1c-0.1-0.1-0.4-0.4-0.5-0.1
		c-0.4,0.6-0.9,1.4-1.6,1.6c-0.1-0.2,0.1-0.4,0.2-0.6c0.3-0.5,0.4-1.1,0.6-1.7c0.2-0.3,0.5-0.7,0.3-1.1c-0.4-0.9-0.7-2-0.4-3.1
		c0.2-1.3-0.1-2.5-1.1-3.4c-0.5-0.3-1-0.9-1.6-0.9c-0.4-0.1-1.1,0-1.3-0.4c0.1-0.4,0.5-0.7,0.7-1.1l0.7-1.1c0.3-0.1,0.2,0.4,0.5,0.4
		c0.6,0,0.6-1,1.1-0.6c0.3,0.4,0.7,0.5,1,0.9c0.4,1.6,1,3.2,2.1,4.4c0.9,1.1,2.2,1.9,3.5,1.5c0.4-0.3,0.9-0.6,0.9-1.1
		c0.4-2.6-2.9-3.8-2.7-6.4c0.2-2.4,2.7-3.7,4.6-4.6c1.1-0.6,2.4-1.3,2.5-2.7c0-0.1,0-0.2,0.1-0.4C34.5,18.7,34.4,19.2,34.5,19.6"/>
	<path class="st0" d="M17,27.1c0.3,0.1,0.6-0.4,0.8,0.1c-0.1,0.6-0.1,1.3-0.4,1.8c-0.3,0.3-0.7,0.1-1,0.2c-0.4,0.1-0.5,1.1-1.1,0.5
		c-0.2-0.1-0.4,0.1-0.5,0.3c-0.2,0.5-0.4,1.1-0.9,1.5c-0.1,0.1-0.2,0.1-0.3,0c-0.1-0.4,0.2-1-0.3-1.1c-0.2,0-0.4,0.1-0.6,0.2
		c-0.4,0-1,0-1.2,0.4c-0.1,0.2-0.1,0.5-0.4,0.5c-0.3-0.1-0.6-0.2-0.7-0.5c-0.1-0.1-0.3-0.2-0.4-0.1c-0.2,0.2-0.3,0.6-0.6,0.6
		c-0.3,0-0.5-0.1-0.8-0.2c0.1-0.6,0.8-0.7,1.2-1c0.9-0.2,1.6-0.8,2.4-0.9c1.4-0.5,2.5-1.6,3.7-2.7c0.1-0.1,0.4-0.1,0.5-0.1
		C16.7,26.8,16.7,27.1,17,27.1"/>
	<path class="st0" d="M10.1,29.7c-0.3,0.1-0.6,0.3-0.9,0.1c-0.1-0.1-0.1-0.5-0.1-0.7c0.1-0.2,0.4-0.1,0.5-0.1
		C9.7,29.3,10.1,29.4,10.1,29.7"/>
	<path class="st0" d="M22.1,33.4c0,0.4-0.1,0.7-0.3,1.1c-0.5,0.4-0.9,1-1.1,1.7c0,0.5-0.1,0.9-0.1,1.4c-0.1,0.1-0.3-0.1-0.4-0.1
		c-0.2-0.4-0.1-1.1-0.8-1c-0.3,0.4-0.6,0.9-0.4,1.3c0.3,0.4,0.8,0.6,0.5,1.1c-0.4,0.2-0.3,0.9-0.9,0.9c-0.9,0.1-1.7-0.3-2.4,0.4
		c-0.2,0.2-0.4,0.5-0.5,0.8c-0.4,0.1-0.3-0.5-0.5-0.7c-0.1-0.2-0.4-0.1-0.6-0.2c-0.3-0.1-0.6-0.4-1-0.2c-0.3,0.1-0.6,0.6-1.1,0.3
		l-0.5-0.1c0-0.1,0.1-0.4,0-0.6l-1-0.4c-0.1-0.1,0-0.2,0.1-0.3c0.8-0.5,1.7,0.1,2.7-0.1c0.6-0.2,1.2-0.1,1.9-0.1
		c0.4,0,0.8,0.1,1.1-0.2c0.1-0.2,0.2-0.5,0.1-0.7c-0.3-0.6-1.1-0.8-1.3-1.5c-0.1-0.1-0.1-0.3-0.3-0.4c-0.2-0.1-0.4,0.1-0.6,0.1
		c-0.1-0.2-0.1-0.4-0.4-0.5c-0.4,0-0.9,0.2-1.3-0.1c0.1-0.2,0.4-0.1,0.5-0.3c0.6-0.1,1.1-0.5,1.6-0.8l0.8-0.1
		c0.8-1.3,2.4-1.2,3.9-1.3l1.4-0.4C22,32.4,22,32.9,22.1,33.4"/>
	<path class="st0" d="M13.2,37.9c-0.3,0.1-0.6,0.1-0.9,0c-0.1-0.1-0.2-0.4-0.2-0.6C12.5,37.1,13,37.5,13.2,37.9"/>
	<path class="st0" d="M25.7,42.5c0,0.1-0.1,0.1-0.2,0.1c-0.1,0-0.1-0.1-0.1-0.1C25.3,42.2,25.7,42.3,25.7,42.5"/>
	<path d="M22.1,19.1c0.1,0.2-0.1,0.4-0.3,0.4c-0.4,0-0.6,0-0.9-0.3c-0.3-0.2-0.1-0.5-0.1-0.8c0.1-0.1,0.3-0.1,0.4-0.1
		C21.6,18.5,21.8,18.8,22.1,19.1"/>
	<path d="M23.7,19.6c0,0.2-0.1,0.4-0.3,0.6c-0.1,0.1-0.3,0-0.3-0.1c-0.1-0.3,0.1-0.5,0.2-0.6C23.4,19.4,23.6,19.4,23.7,19.6"/>
	<path d="M21.9,21.6v0.5c-0.5,0.5-0.5,1.4-1.2,1.6c-0.2,0-0.4-0.1-0.4-0.3c0-0.3-0.1-0.7,0-1c0.3-0.1,0.4,0.4,0.6,0.1
		c0.1-0.4,0.5-0.8,0.7-1.1C21.8,21.4,21.8,21.5,21.9,21.6"/>
</g>
<rect x="0.4" y="12.9" width="42.9" height="2.9"/>
<rect x="0.4" y="12.9" class="st3" width="42.9" height="2.9"/>
<rect x="32.3" y="13.4" class="st0" width="4.9" height="1.9"/>
<rect x="21.7" y="13.4" class="st0" width="4.9" height="1.9"/>
<rect x="11.1" y="13.4" class="st0" width="4.9" height="1.9"/>
<rect x="0.9" y="13.4" class="st0" width="4.4" height="1.9"/>
<g>
	<path d="M41.3,2.2c0.4,0.4,0.1,1.1,0.2,1.6c0.4,0.3,1.2,0,1.3,0.7c0.1,0.3-0.1,0.5-0.3,0.6c-0.3,0.3-0.7,0-0.9,0.3
		c-0.1,0.9,0,1.9,0,2.8c0.3,0.1,0.6,0.1,0.9,0.3c0.1,0.1,0.3,0.4,0.3,0.6s-0.1,0.4-0.4,0.5c-0.2,0.1-0.6,0-0.8,0.3
		c-0.1,0.4,0,1-0.1,1.5c-0.3,0.1-0.7,0.1-1.1,0.1H37c-0.3,0.1-0.6,0.5-1.1,0.3c-0.7-0.4-1.7-0.3-2.6-0.4h-2.6
		c-0.4-0.4-0.1-1.1-0.3-1.6c-0.1-0.3-0.6-0.1-0.9-0.3c-0.3-0.1-0.3-0.4-0.3-0.6c0-0.3,0.3-0.4,0.6-0.5c0.2-0.1,0.6,0.1,0.6-0.2
		c0-0.9-0.1-1.8,0-2.7c-0.1-0.5-0.8-0.2-1.1-0.4c-0.3-0.1-0.3-0.5-0.2-0.8C29.4,3.9,30,4,30.4,3.9l0.1-0.1l0.1-1.5l0.1-0.1l4,0.1
		c0.4,0,0.9,0.2,1.3,0.4c0.9-0.6,2.1-0.3,3.1-0.5C40,2.2,40.7,2.1,41.3,2.2"/>
	<path class="st4" d="M41.3,2.2c0.4,0.4,0.1,1.1,0.2,1.6c0.4,0.3,1.2,0,1.3,0.7c0.1,0.3-0.1,0.5-0.3,0.6c-0.3,0.3-0.7,0-0.9,0.3
		c-0.1,0.9,0,1.9,0,2.8c0.3,0.1,0.6,0.1,0.9,0.3c0.1,0.1,0.3,0.4,0.3,0.6s-0.1,0.4-0.4,0.5c-0.2,0.1-0.6,0-0.8,0.3
		c-0.1,0.4,0,1-0.1,1.5c-0.3,0.1-0.7,0.1-1.1,0.1H37c-0.3,0.1-0.6,0.5-1.1,0.3c-0.7-0.4-1.7-0.3-2.6-0.4h-2.6
		c-0.4-0.4-0.1-1.1-0.3-1.6c-0.1-0.3-0.6-0.1-0.9-0.3c-0.3-0.1-0.3-0.4-0.3-0.6c0-0.3,0.3-0.4,0.6-0.5c0.2-0.1,0.6,0.1,0.6-0.2
		c0-0.9-0.1-1.8,0-2.7c-0.1-0.5-0.8-0.2-1.1-0.4c-0.3-0.1-0.3-0.5-0.2-0.8C29.4,3.9,30,4,30.4,3.9l0.1-0.1l0.1-1.5l0.1-0.1l4,0.1
		c0.4,0,0.9,0.2,1.3,0.4c0.9-0.6,2.1-0.3,3.1-0.5C40,2.2,40.7,2.1,41.3,2.2z"/>
	<path d="M27.1,2.2c0.1,0,0.4,0.1,0.5,0.2c0.1,0.6,0,1,0.1,1.5c0.4,0.1,0.9,0,1.1,0.5c0.1,0.2,0.1,0.6-0.1,0.7
		c-0.3,0.4-0.9,0-1.1,0.4c-0.1,1.1-0.1,1.8,0,2.8c0.3,0.3,0.8,0.1,1.1,0.4c0.1,0.1,0.2,0.4,0.1,0.6c-0.2,0.4-0.7,0.4-1.1,0.4
		c-0.1,0.1,0,0.4-0.1,0.6c-0.1,0.4,0.2,0.9-0.2,1.1c-1.2,0.1-2.3-0.1-3.6,0h-1.1c-0.3,0.2-0.7,0.5-1.1,0.3l-0.7-0.3
		c-0.9,0-1.7,0-2.6,0c-0.6,0-1.4,0.2-1.8-0.3c0-0.4,0.1-0.9,0-1.4c-0.4-0.1-1.1,0.1-1.4-0.5c-0.1-0.1,0-0.4,0.1-0.6
		c0.3-0.4,1.1-0.1,1.4-0.4V7.1c0.1-0.6,0-1.1,0-1.7c-0.4-0.1-1.2,0.1-1.3-0.6c-0.1-0.4,0.1-0.6,0.4-0.7C16,4,16.5,4.1,16.6,3.8
		l0.1-1.4c0.4-0.6,1.2-0.2,1.7-0.3H21c0.4,0.1,0.8,0.4,1.2,0.2C23.7,1.7,25.5,2.3,27.1,2.2"/>
	<path class="st4" d="M27.1,2.2c0.1,0,0.4,0.1,0.5,0.2c0.1,0.6,0,1,0.1,1.5c0.4,0.1,0.9,0,1.1,0.5c0.1,0.2,0.1,0.6-0.1,0.7
		c-0.3,0.4-0.9,0-1.1,0.4c-0.1,1.1-0.1,1.8,0,2.8c0.3,0.3,0.8,0.1,1.1,0.4c0.1,0.1,0.2,0.4,0.1,0.6c-0.2,0.4-0.7,0.4-1.1,0.4
		c-0.1,0.1,0,0.4-0.1,0.6c-0.1,0.4,0.2,0.9-0.2,1.1c-1.2,0.1-2.3-0.1-3.6,0h-1.1c-0.3,0.2-0.7,0.5-1.1,0.3l-0.7-0.3
		c-0.9,0-1.7,0-2.6,0c-0.6,0-1.4,0.2-1.8-0.3c0-0.4,0.1-0.9,0-1.4c-0.4-0.1-1.1,0.1-1.4-0.5c-0.1-0.1,0-0.4,0.1-0.6
		c0.3-0.4,1.1-0.1,1.4-0.4V7.1c0.1-0.6,0-1.1,0-1.7c-0.4-0.1-1.2,0.1-1.3-0.6c-0.1-0.4,0.1-0.6,0.4-0.7C16,4,16.5,4.1,16.6,3.8
		l0.1-1.4c0.4-0.6,1.2-0.2,1.7-0.3H21c0.4,0.1,0.8,0.4,1.2,0.2C23.7,1.7,25.5,2.3,27.1,2.2z"/>
	<path class="st4" d="M7.4,2.5c1.4-0.6,3-0.1,4.6-0.3c0.4,0.1,1-0.2,1.3,0.2c0,0.4,0,0.9,0,1.4C13.4,4,13.9,3.8,14.2,4
		c0.1,0.1,0.3,0.1,0.4,0.4s0,0.4-0.1,0.6c-0.3,0.3-0.6,0.2-1.1,0.3l-0.1,0.1c0.1,0.9-0.1,1.6,0,2.4c0,0.1-0.1,0.4,0.1,0.5
		c0.4,0,0.8,0,1.1,0.3c0.1,0.2,0.1,0.4,0.1,0.7c-0.1,0.9-1.5-0.1-1.4,0.9c0,0.4,0.1,0.9-0.1,1.2c-1.6,0-3.2-0.1-4.7,0
		c-0.3,0.2-0.6,0.4-1,0.4c-0.3-0.1-0.6-0.2-0.8-0.4c-1.4-0.1-2.8-0.1-4.2-0.1c-0.4-0.4-0.1-1-0.3-1.6C2,9.6,1.6,9.8,1.3,9.6
		C1.1,9.6,1,9.4,1,9.3C1,9,1,8.7,1.2,8.5C1.4,8.3,1.7,8.3,2,8.3l0.1-0.1C2.1,7.3,2.3,6.3,2.1,5.3C2,5.1,1.7,5.3,1.5,5.2
		C1.2,5.1,1,5,0.9,4.8C0.8,4.5,0.7,4.3,1,4.1c0.3-0.4,0.9,0.1,1.1-0.3l0.1-1.4C2.5,2,3.1,2.2,3.5,2.2c0.7-0.1,1.6,0,2.3,0
		C6.5,2.2,7,2.2,7.4,2.5z"/>
	<path class="st0" d="M7.2,2.8l0.1,0.3c0.1,1.9,0.1,3.9,0.1,6L7.3,9.9c-0.5,0-1-0.2-1.6-0.1C5.2,9.6,4.6,9.8,4.1,9.6
		C3.8,9,4,8.3,4,7.6C4,6.1,4,4.3,4,2.8c0-0.1,0.1-0.1,0.2-0.2C5.3,2.5,6.4,2.3,7.2,2.8"/>
	<path class="st0" d="M3.4,2.7C3.1,2.9,2.8,3.3,2.9,3.6c0.1,2.4,0,4.6,0.1,7l0.2,0.2c1.1,0,2.4-0.1,3.5,0.1c0.1,0,0.1,0.1,0,0.1
		c-0.3,0.1-0.6,0.1-0.9,0.1L2.9,11c-0.2-0.1-0.1-0.6-0.1-0.8c0-0.3,0.1-0.6-0.2-0.8c-0.4-0.1-0.8,0-1.1-0.3C1.7,8.6,2.6,9,2.8,8.3
		c0.1-1.1-0.1-2.2,0-3.2C2.6,4.6,2,4.8,1.6,4.7C1.5,4.6,1.5,4.5,1.5,4.4C1.8,4,2.5,4.5,2.8,4c0.1-0.4,0-0.9,0.1-1.4
		C3,2.5,3.3,2.5,3.5,2.5L3.4,2.7L3.4,2.7z"/>
	<path class="st0" d="M11.6,2.7c0,2.4,0,4.6,0,6.9c-1.1,0.1-2.4-0.1-3.7,0.2C7.6,9.6,7.8,9.1,7.8,8.8c-0.1-0.8,0-1.6,0-2.4
		c0-1.1-0.1-2.4,0-3.5c0.1-0.4,0.6-0.4,0.9-0.4h2.7L11.6,2.7z"/>
	<path class="st0" d="M12.9,2.7c0.1,0.4-0.1,1.1,0.1,1.5c0.3,0.1,0.7,0.1,1,0.1c0.1,0.1,0.1,0.3,0,0.4c-0.3,0.3-1-0.1-1.1,0.4
		c0,1.1-0.1,2.2,0,3.4l0.1,0.1c0.4,0.1,0.9-0.1,1.1,0.2c0,0.1,0,0.4-0.1,0.4c-0.4,0.1-0.9-0.1-1.1,0.3c-0.1,0.4,0.1,0.9-0.1,1.4
		l-0.2,0.1L8.5,11c-0.1-0.1,0-0.1,0-0.1l0.4-0.1h3.3c0.4-0.1,0.4-0.5,0.4-0.8c0-1.6,0-3.1,0-4.7c0-0.8,0.1-1.5-0.1-2.3
		c0-0.1-0.3-0.3-0.3-0.5C12.5,2.5,12.8,2.5,12.9,2.7"/>
	<path class="st0" d="M31.7,2.6c-0.1,0.2-0.4,0.4-0.4,0.6c0,2.4,0,4.9,0.1,7.5l0.2,0.1c1.3,0,2.7-0.3,3.7,0.3c0.1,0,0,0,0,0.1
		c-1.4,0-2.8,0.1-4.2,0l-0.1-0.1c-0.1-0.5,0.1-1-0.1-1.5c-0.3-0.3-1.2,0.1-1-0.6c0.4-0.3,0.9,0.1,1.1-0.4c0-1.2,0.1-2.3,0-3.4
		C30.6,4.8,30.1,5,29.8,5c-0.1-0.1-0.2-0.3-0.1-0.4c0.4-0.3,1.5,0.1,1.3-0.8c0.1-0.4-0.1-1.1,0.4-1.1C31.4,2.5,31.6,2.5,31.7,2.6"/>
	<path class="st0" d="M41.1,2.7c0.1,0.6-0.1,1.1,0.2,1.6c0.4,0.1,0.9-0.1,1.1,0.2c0,0.7-1,0.1-1.2,0.7c0.1,1.1-0.1,2,0,3.2
		c-0.1,0.1-0.1,0.2-0.1,0.3c0.3,0.3,0.7-0.1,1.1,0.1c0.2,0.1,0.1,0.2,0.1,0.4c-0.3,0.4-0.9-0.1-1.1,0.4l-0.1,1.4l-0.2,0.1H37
		c-0.1-0.1,0-0.1,0-0.1l0.4-0.1h2.9c0.1,0,0.4-0.1,0.4-0.4c0-2.3-0.1-4.7-0.1-7.2l-0.4-0.7C40.6,2.5,41.1,2.5,41.1,2.7"/>
	<path class="st0" d="M32.1,3.6v6.2c-0.1,0.1-0.3,0.3-0.4,0.4l-0.1-0.1c0-0.6,0-1.4,0-2.1V7.6c0-1.4,0-2.9,0-4.3
		c0.1-0.1,0.2-0.4,0.4-0.4C32.1,3.2,32,3.3,32.1,3.6"/>
	<path class="st0" d="M40.5,3.3c-0.1,1.6,0,3.2,0,4.7c0,0.7,0,1.4,0,2c0,0.1,0,0.1-0.1,0.1c-0.5-0.2-0.3-0.8-0.4-1.2
		c0-0.6-0.1-1.3,0.1-1.9l-0.1-0.2V3C40.3,2.8,40.5,3.1,40.5,3.3"/>
	<path class="st0" d="M12.3,3.2c0,2.4,0,4.7-0.1,6.8c-0.1,0.1-0.1,0-0.3-0.1c-0.1-0.4,0-0.8,0-1.1c-0.1-1.9,0-3.8,0-5.7
		C12.1,2.9,12.3,3,12.3,3.2"/>
	<path class="st0" d="M36.3,6.1c-0.1,0.1-0.3,0.1-0.4,0.1l-0.1-0.1c0.1-0.3,0-0.7,0.3-0.9C36.2,5.4,36.2,5.8,36.3,6.1"/>
	<path class="st0" d="M12,10.3c-0.1,0.1-0.4,0.1-0.5,0.1h-0.9c-0.8,0-1.5-0.1-2.2,0.1c-0.1,0-0.2-0.1-0.2-0.3
		c0.1-0.3,0.4-0.1,0.6-0.3c0.9,0,2,0,2.9,0C11.8,10.1,11.9,10.1,12,10.3"/>
	<path class="st0" d="M7.1,10.2c0,0.1-0.1,0.3-0.3,0.4c-0.9-0.3-1.9-0.1-2.9-0.2l0,0c0.1-0.1,0.2-0.3,0.4-0.3
		C5.3,10,6.3,10,7.1,10.2"/>
	<path class="st0" d="M35.7,10.3c0.1,0.1,0.1,0.2,0,0.2c-0.4,0.4-0.8-0.1-1.2,0c-0.8-0.1-1.6,0-2.4-0.1c0.2-0.6,1.1-0.3,1.6-0.4
		C34.4,10.1,35.1,9.9,35.7,10.3"/>
	<path class="st0" d="M40,10.1c0.1,0.1,0.3,0.2,0.3,0.4c-1.2,0.1-2.4-0.1-3.5,0.1c-0.1,0-0.2-0.2-0.1-0.4c0.2-0.3,0.6-0.2,0.9-0.3
		L40,10.1z"/>
	<path class="st0" d="M8.1,10.7c0.1,0.2,0,0.5-0.1,0.6c-0.1,0.1-0.4,0.1-0.5,0.1c-0.1,0-0.2-0.2-0.2-0.4c-0.1-0.3,0.3-0.4,0.4-0.6
		C7.8,10.4,8,10.6,8.1,10.7"/>
	<path class="st0" d="M36.5,10.9c0,0.3,0,0.6-0.3,0.6c-0.2,0-0.4-0.1-0.5-0.3c-0.1-0.3,0.1-0.6,0.3-0.6
		C36.3,10.6,36.4,10.8,36.5,10.9"/>
	<path class="st0" d="M25.9,2.8c0,2.3,0,4.6,0,6.9l-0.1,0.1c-1.2,0.1-2.4-0.2-3.6,0.2c-0.2-0.1,0-0.4-0.1-0.6v-6
		c0-0.2,0.1-0.4,0.3-0.4c0.3-0.2,0.8-0.1,1.1-0.2L25.9,2.8L25.9,2.8z"/>
	<path class="st0" d="M27.3,2.7c0,0.5,0,1,0.1,1.5c0.4,0.3,1.4-0.1,1.1,0.6C28.2,5,27.7,4.9,27.4,5l-0.1,0.1c-0.1,1.1,0.1,2.4,0,3.4
		c0,0.1,0.1,0.3,0.3,0.4c0.3,0,0.8-0.2,0.9,0.2c-0.1,0.7-0.9,0.1-1.2,0.6c-0.1,0.5,0.1,1-0.1,1.5l-0.1,0.1c-1.5,0-2.9,0-4.3-0.1
		c-0.1,0,0-0.1,0-0.1l0.3-0.1c1.1-0.1,2.4,0,3.7-0.1c0.1,0,0.3-0.1,0.3-0.4c0-2.2,0-4.5,0-7c-0.1-0.4-0.4-0.6-0.4-0.9
		C26.8,2.5,27.1,2.4,27.3,2.7"/>
	<path class="st0" d="M17.6,2.5c-0.1,0.3-0.3,0.4-0.4,0.6c-0.1,0.4,0,0.9-0.1,1.4c0,2,0,3.9,0,5.9c0,0.1,0.1,0.3,0.3,0.4l3.1,0.1
		c0.1,0,0.4,0.1,0.5,0.2c-0.1,0.1-0.3,0.1-0.4,0.1c-1.1,0-2.4,0.1-3.5-0.1l-0.1-0.1c0-0.5,0-1.1-0.2-1.6c-0.4-0.1-0.8,0-1.1-0.1
		c-0.1-0.1-0.1-0.3,0-0.4c0.4-0.2,1.1,0.1,1.3-0.4c0-1.1,0.1-2.2,0-3.4c-0.3-0.4-1,0-1.3-0.4C15.7,4,16.6,4.6,16.8,4l0.1-1.4
		C17.2,2.5,17.4,2.5,17.6,2.5"/>
	<path class="st0" d="M18,3c0.1,2-0.1,3.8,0,5.8c-0.1,0.4,0.2,1.1-0.4,1.2c-0.1-2,0-4.2-0.1-6.3C17.5,3.3,17.7,3,18,2.8L18,3z"/>
	<path class="st0" d="M26.7,3.3c0,2.2,0.1,4.6-0.1,6.7c-0.1,0-0.3-0.1-0.3-0.2c0-0.9-0.1-1.8-0.1-2.8c0.1-1.2-0.1-2.7,0.1-4
		C26.4,3,26.7,3.2,26.7,3.3"/>
	<path class="st0" d="M21.3,10.2c0.1,0,0.3,0.1,0.1,0.3l-0.2,0.2c-1-0.4-2.3-0.1-3.4-0.3c0.1-0.1,0.1-0.3,0.3-0.4
		C19.2,10.1,20.4,9.9,21.3,10.2"/>
	<path class="st0" d="M26,10.1c0.1,0.1,0.3,0.2,0.3,0.4l-0.1,0.1c-1.2,0-2.4-0.1-3.6,0.1c-0.1,0-0.4,0-0.4-0.2
		c0.1-0.3,0.4-0.4,0.8-0.4C24,10,25,10.1,26,10.1"/>
	<path class="st0" d="M22.3,11c0,0.2,0,0.5-0.3,0.5c-0.2,0-0.5,0-0.5-0.3c0.1-0.2,0.2-0.4,0.4-0.5C22,10.7,22.2,10.9,22.3,11"/>
	<path class="st0" d="M21.7,7.3c0.1-1.1,0-2.4,0.1-3.6c0-0.4,0-0.8-0.2-1c-0.9-0.4-2-0.1-2.9-0.2c-0.1,0-0.1,0-0.1,0.1
		c0,2.3,0,4.4,0,6.7l0.1,0.3c0.7,0.1,1.4,0.1,2.2,0.1c0.4,0.1,0.8,0.1,1.1,0.2c0-0.8,0.1-1.4,0-2.2L21.7,7.3z"/>
	<path d="M20.5,5.8c-0.2,0-0.5,0.1-0.6-0.1c0-0.4-0.1-0.9,0-1.2c0.3-0.2,0.6-0.1,0.9,0.1c0.1,0.2,0.1,0.4,0.1,0.7
		C20.8,5.5,20.7,5.8,20.5,5.8 M21.3,7.3C21,7,20.9,6.6,20.6,6.2c0.1-0.1,0.3-0.2,0.5-0.4c0.2-0.2,0.4-0.6,0.4-0.9
		c0-0.3-0.1-0.6-0.4-0.7C20.4,4,19.7,4,19,4.1c-0.1,0.1-0.1,0.1-0.1,0.3c0.2,0.1,0.3,0.3,0.4,0.4c0,0.8,0,1.6-0.1,2.4l-0.3,0.4
		c0.3,0.3,0.8,0.1,1.2,0.1c0.1-0.2-0.2-0.4-0.3-0.6c0.1-0.2,0-0.6,0.1-0.8c0.4,0.4,0.6,1,1.1,1.4l0.7,0.1V7.4
		C21.6,7.4,21.5,7.3,21.3,7.3"/>
	<path class="st0" d="M39.8,3.3c0-0.3,0-0.6-0.1-0.8h-1.1c-0.8,0.1-1.6-0.1-2.2,0.3c-0.3,0.4-0.1,0.8-0.2,1.1
		c0.1,0.2,0.1,0.5,0.2,0.7L36.2,5l-0.4-0.1l-0.1-0.3c0.1-0.2,0.1-0.4,0.1-0.6c0-0.5,0.1-1.2-0.5-1.4c-0.9-0.1-1.9-0.1-2.9-0.1
		c-0.1,0-0.1,0-0.1,0.1c0,2.2,0,4.2,0,6.4c0,0.3-0.1,0.6,0.2,0.7c0.9-0.1,1.6,0,2.4,0c0.3,0,0.5,0.3,0.9,0.2c0.1-0.9,0.1-2,0.1-2.9
		c0-0.1,0-0.3-0.1-0.3V6.4l0.5,0.1l0.1,0.1c0,0,0,0-0.1,0.1l-0.1,3c0,0.1,0,0.3,0.2,0.3c0.9-0.5,2-0.1,3.1-0.3l0.2-0.1
		c0.1-0.5,0.1-2.3,0.1-2.3C39.8,6.1,39.8,4.8,39.8,3.3"/>
	<path d="M35.8,6.3l-0.1-0.1c0.1-0.3,0-0.7,0.3-0.9c0.3,0.1,0.2,0.6,0.4,0.9C36.2,6.3,36,6.3,35.8,6.3 M36.5,6.6
		c0.1,0.1,0.2,0.4,0.1,0.6l-0.2,0.3l0.1,0.1c0.4,0,0.8,0.1,1.1-0.1c-0.1-0.1-0.3-0.2-0.4-0.4c-0.4-1.1-0.7-2.2-1-3.3L35.9,4
		C35.7,5,35.2,5.9,35,7c-0.1,0.2-0.3,0.2-0.4,0.4c-0.2,0.1-0.3-0.1-0.4-0.3c0-0.9,0.1-1.6,0-2.5c0-0.1,0.1-0.3,0.3-0.1
		c0.2,0.1,0.2,0.4,0.3,0.6C34.9,5.1,35,5.1,35,5L35.2,4c-0.1-0.3-0.4,0-0.6,0c-0.4,0-1.1,0.1-1.4-0.1c-0.4,0.1-0.3,0.6-0.3,0.9
		c0,0.1,0,0.1,0,0.1c0.3-0.1,0.4-0.6,0.9-0.5v0.9l-0.1,1.9c-0.1,0.1-0.4,0.2-0.4,0.4c0.5,0.1,1.1,0,1.6,0.1c0.3,0,0.6,0.1,0.9,0
		c0.1-0.1,0-0.1,0-0.2c-0.1-0.1-0.4-0.2-0.3-0.4c0.1-0.1,0.1-0.4,0.4-0.4c0.1,0,0.1,0,0.1,0.1l0.4,0.1l0,0
		C36.4,6.7,36.4,6.6,36.5,6.6"/>
	<path d="M39.1,4.3c0,0.2,0.1,0.6,0,0.7c-0.2-0.1-0.2-0.4-0.6-0.4c-0.1,0-0.4,0-0.4,0.2c-0.1,0.6,0.6,0.6,0.9,1
		c0.4,0.4,0.5,0.9,0.4,1.3c-0.1,0.4-0.3,0.5-0.6,0.5c-0.3,0.1-0.5-0.1-0.7,0c-0.1,0-0.1,0.1-0.2,0V6.4c0-0.1,0.1-0.1,0.1-0.1
		c0.1,0.4,0.1,0.9,0.6,0.9c0.1,0,0.4-0.1,0.4-0.3c0.1-1-1.3-0.8-1.3-1.9c0-0.2,0.1-0.4,0.1-0.6C38,4,38.6,4.3,39,4
		C39.1,4,39.1,4.2,39.1,4.3"/>
	<path d="M24.5,4.2C24.2,4.3,23.8,4.5,24,5c-0.1,0.7-0.1,1.4,0,2.2l0.5,0.4v0.1c-0.5,0-0.9,0.1-1.4,0c-0.2-0.2,0.3-0.4,0.4-0.5
		c0.1-0.8,0.1-1.6,0.1-2.6C23.4,4.3,23,4.4,23,4.1C23.5,4,24.1,4,24.5,4.2L24.5,4.2z"/>
	<path d="M10.4,4.8C10.1,5.1,10,4.5,9.7,4.4c-0.1,0-0.4-0.1-0.6,0.1C9.1,4.8,9,5.2,9.1,5.5c0.1,0.1,0.4,0.1,0.5,0.1
		c0.1-0.1,0.3-0.4,0.5-0.4c0.1,0.1-0.1,0.4,0,0.5c-0.1,0.2,0.1,0.5-0.1,0.6C9.9,6.2,9.7,5.8,9.5,5.8H9.1c-0.1,0.5-0.1,1,0,1.5
		c0.2,0.2,0.5,0,0.8,0c0.4-0.1,0.3-0.6,0.6-0.6c0.1,0.2,0.1,0.5,0.1,0.8l-0.1,0.1H8.3c-0.1,0-0.3,0-0.2-0.1c0.6-0.4,0.3-1.2,0.4-1.9
		C8.4,5.3,8.8,4.5,8.1,4.3c0-0.1,0.1-0.1,0.2-0.1c0.5,0,1.2,0.2,1.6-0.2C10.4,4,10.4,4.4,10.4,4.8"/>
	<path d="M7.2,4.3C6.6,4.7,6.6,5.5,6.3,6.2C6.1,6.6,6.2,7.1,5.8,7.4C5.7,7.5,5.5,7.3,5.5,7.2C5.3,6.3,5.1,5.4,4.8,4.5
		c0-0.3-0.6-0.3-0.3-0.5C4.9,4,5.3,4.1,5.6,4c0.1,0.3-0.3,0.4-0.2,0.7c0.3,0.4,0.1,0.9,0.5,1.4L6.1,6c0-0.6,0.8-1.3,0.1-1.9
		C6.3,3.8,6.8,4,7.1,4C7.1,4.1,7.3,4.1,7.2,4.3"/>
	<path class="st0" d="M3.7,2.9c0.1,2.4,0,4.7,0,6.9c0,0.1-0.1,0.3-0.3,0.3C3.3,9.3,3.3,8.6,3.3,7.9c-0.1-1.5,0-3.2,0-4.7
		C3.3,3.1,3.5,3,3.7,2.9"/>
</g>
</svg>
